%TF.GenerationSoftware,KiCad,Pcbnew,8.0.1*%
%TF.CreationDate,2025-01-20T12:05:53-05:00*%
%TF.ProjectId,200280,32303032-3830-42e6-9b69-6361645f7063,rev?*%
%TF.SameCoordinates,PX3473bc0PY5f5e100*%
%TF.FileFunction,Copper,L2,Bot*%
%TF.FilePolarity,Positive*%
%FSLAX46Y46*%
G04 Gerber Fmt 4.6, Leading zero omitted, Abs format (unit mm)*
G04 Created by KiCad (PCBNEW 8.0.1) date 2025-01-20 12:05:53*
%MOMM*%
%LPD*%
G01*
G04 APERTURE LIST*
G04 Aperture macros list*
%AMRoundRect*
0 Rectangle with rounded corners*
0 $1 Rounding radius*
0 $2 $3 $4 $5 $6 $7 $8 $9 X,Y pos of 4 corners*
0 Add a 4 corners polygon primitive as box body*
4,1,4,$2,$3,$4,$5,$6,$7,$8,$9,$2,$3,0*
0 Add four circle primitives for the rounded corners*
1,1,$1+$1,$2,$3*
1,1,$1+$1,$4,$5*
1,1,$1+$1,$6,$7*
1,1,$1+$1,$8,$9*
0 Add four rect primitives between the rounded corners*
20,1,$1+$1,$2,$3,$4,$5,0*
20,1,$1+$1,$4,$5,$6,$7,0*
20,1,$1+$1,$6,$7,$8,$9,0*
20,1,$1+$1,$8,$9,$2,$3,0*%
G04 Aperture macros list end*
%TA.AperFunction,ComponentPad*%
%ADD10RoundRect,0.250000X-0.650000X-1.550000X0.650000X-1.550000X0.650000X1.550000X-0.650000X1.550000X0*%
%TD*%
%TA.AperFunction,ComponentPad*%
%ADD11O,1.800000X3.600000*%
%TD*%
%TA.AperFunction,ComponentPad*%
%ADD12C,6.400000*%
%TD*%
%TA.AperFunction,ComponentPad*%
%ADD13O,1.905000X2.000000*%
%TD*%
%TA.AperFunction,ComponentPad*%
%ADD14R,1.905000X2.000000*%
%TD*%
%TA.AperFunction,ViaPad*%
%ADD15C,0.600000*%
%TD*%
%TA.AperFunction,Conductor*%
%ADD16C,0.300000*%
%TD*%
%TA.AperFunction,Conductor*%
%ADD17C,1.000000*%
%TD*%
%TA.AperFunction,Conductor*%
%ADD18C,0.500000*%
%TD*%
G04 APERTURE END LIST*
D10*
%TO.P,J1,1,Pin_1*%
%TO.N,/WallButton*%
X12250000Y19750000D03*
D11*
%TO.P,J1,2,Pin_2*%
%TO.N,/Return?*%
X15750000Y19750000D03*
%TO.P,J1,3,Pin_3*%
%TO.N,/Relay3_*%
X19250000Y19750000D03*
%TO.P,J1,4,Pin_4*%
%TO.N,/Relay2_*%
X22750000Y19750000D03*
%TO.P,J1,5,Pin_5*%
%TO.N,/Relay1_Light*%
X26250000Y19750000D03*
%TO.P,J1,6,Pin_6*%
%TO.N,/EndStopClosed*%
X29750000Y19750000D03*
%TO.P,J1,7,Pin_7*%
%TO.N,/EndStopOpen*%
X33250000Y19750000D03*
%TO.P,J1,8,Pin_8*%
%TO.N,/Obstruction*%
X36750000Y19750000D03*
%TO.P,J1,9,Pin_9*%
%TO.N,/PowerIn*%
X40250000Y19750000D03*
%TO.P,J1,10,Pin_10*%
%TO.N,GND*%
X43750000Y19750000D03*
%TD*%
D12*
%TO.P,H1,1,1*%
%TO.N,unconnected-(H1-Pad1)*%
X5000000Y12500000D03*
%TD*%
D13*
%TO.P,U3,3,VO*%
%TO.N,+5V*%
X56540000Y19000000D03*
%TO.P,U3,2,GND*%
%TO.N,GND*%
X54000000Y19000000D03*
D14*
%TO.P,U3,1,VI*%
%TO.N,/PowerIn*%
X51460000Y19000000D03*
%TD*%
D12*
%TO.P,H4,1,1*%
%TO.N,unconnected-(H4-Pad1)*%
X120000000Y12500000D03*
%TD*%
D15*
%TO.N,GND*%
X85500000Y7800000D03*
X72300000Y21400000D03*
X75700000Y16200000D03*
X67342195Y21342195D03*
X66912754Y19710432D03*
%TO.N,+5V*%
X74700000Y18200000D03*
X71500000Y18300000D03*
%TO.N,GND*%
X113400000Y20400000D03*
X113400000Y18600000D03*
X86500000Y19000000D03*
X85200000Y19000000D03*
X84200000Y12400000D03*
X84100000Y11425000D03*
X113700000Y19533000D03*
X87500000Y11400000D03*
X87400000Y17200000D03*
%TO.N,+5V*%
X82950000Y23000000D03*
X114300000Y23200000D03*
%TD*%
D16*
%TO.N,+5V*%
X71600000Y18200000D02*
X71500000Y18300000D01*
X74700000Y18200000D02*
X71600000Y18200000D01*
D17*
X71500000Y24000000D02*
X80400000Y24000000D01*
X57800000Y24000000D02*
X71500000Y24000000D01*
D16*
X71500000Y18300000D02*
X71500000Y24000000D01*
D17*
X80400000Y24000000D02*
X83000000Y24000000D01*
D16*
X82950000Y23950000D02*
X83000000Y24000000D01*
D17*
X83000000Y24000000D02*
X113500000Y24000000D01*
D18*
X82950000Y23000000D02*
X82950000Y23950000D01*
D17*
X56540000Y22740000D02*
X57800000Y24000000D01*
X113500000Y24000000D02*
X114300000Y23200000D01*
X56540000Y19000000D02*
X56540000Y22740000D01*
%TD*%
%TA.AperFunction,Conductor*%
%TO.N,GND*%
G36*
X57133089Y24479815D02*
G01*
X57178844Y24427011D01*
X57188788Y24357853D01*
X57159763Y24294297D01*
X57153731Y24287819D01*
X56118956Y23253044D01*
X56081412Y23215500D01*
X56026954Y23161043D01*
X55954675Y23052871D01*
X55954668Y23052858D01*
X55935815Y23007340D01*
X55935815Y23007339D01*
X55904883Y22932664D01*
X55904880Y22932654D01*
X55888121Y22848398D01*
X55879500Y22805059D01*
X55879500Y20006544D01*
X55859815Y19939505D01*
X55828388Y19906228D01*
X55814932Y19896452D01*
X55814926Y19896447D01*
X55691049Y19772570D01*
X55691045Y19772565D01*
X55588079Y19630843D01*
X55508543Y19474749D01*
X55454405Y19308129D01*
X55427000Y19135100D01*
X55427000Y18864901D01*
X55454405Y18691872D01*
X55508543Y18525252D01*
X55588079Y18369158D01*
X55691045Y18227436D01*
X55691049Y18227431D01*
X55814930Y18103550D01*
X55814935Y18103546D01*
X55890729Y18048479D01*
X55956661Y18000577D01*
X56056121Y17949900D01*
X56112751Y17921044D01*
X56112753Y17921044D01*
X56112756Y17921042D01*
X56279372Y17866905D01*
X56378090Y17851270D01*
X56452401Y17839500D01*
X56452405Y17839500D01*
X56627599Y17839500D01*
X56694704Y17850129D01*
X56800628Y17866905D01*
X56967244Y17921042D01*
X57123339Y18000577D01*
X57265071Y18103551D01*
X57388949Y18227429D01*
X57491923Y18369161D01*
X57571458Y18525256D01*
X57625595Y18691872D01*
X57642371Y18797796D01*
X57653000Y18864901D01*
X57653000Y19135100D01*
X57639714Y19218982D01*
X57625595Y19308128D01*
X57571458Y19474744D01*
X57571456Y19474747D01*
X57571456Y19474749D01*
X57542600Y19531379D01*
X57491923Y19630839D01*
X57462738Y19671009D01*
X57388954Y19772565D01*
X57388950Y19772570D01*
X57265073Y19896447D01*
X57265067Y19896452D01*
X57251612Y19906228D01*
X57208948Y19961559D01*
X57200500Y20006544D01*
X57200500Y22415050D01*
X57220185Y22482089D01*
X57236819Y22502731D01*
X58037269Y23303181D01*
X58098592Y23336666D01*
X58124950Y23339500D01*
X71065500Y23339500D01*
X71132539Y23319815D01*
X71178294Y23267011D01*
X71189500Y23215500D01*
X71189500Y18691117D01*
X71169815Y18624078D01*
X71159213Y18609914D01*
X71108620Y18551528D01*
X71108618Y18551525D01*
X71053610Y18431076D01*
X71053609Y18431072D01*
X71034765Y18300000D01*
X71053609Y18168929D01*
X71053610Y18168925D01*
X71108617Y18048479D01*
X71108619Y18048475D01*
X71195336Y17948399D01*
X71306734Y17876807D01*
X71383696Y17854209D01*
X71433789Y17839500D01*
X71433790Y17839500D01*
X71566210Y17839500D01*
X71693266Y17876807D01*
X71693268Y17876809D01*
X71693270Y17876809D01*
X71696528Y17878296D01*
X71748035Y17889500D01*
X74303092Y17889500D01*
X74370131Y17869815D01*
X74388421Y17853968D01*
X74388631Y17854209D01*
X74395332Y17848403D01*
X74395336Y17848399D01*
X74506734Y17776807D01*
X74596482Y17750455D01*
X74633789Y17739500D01*
X74633790Y17739500D01*
X74766210Y17739500D01*
X74893266Y17776807D01*
X75004664Y17848399D01*
X75091381Y17948475D01*
X75137049Y18048474D01*
X75146389Y18068925D01*
X75146390Y18068929D01*
X75151367Y18103546D01*
X75165235Y18200000D01*
X75146390Y18331072D01*
X75146389Y18331076D01*
X75108390Y18414280D01*
X75091381Y18451525D01*
X75004664Y18551601D01*
X74948965Y18587397D01*
X74893268Y18623192D01*
X74893266Y18623193D01*
X74766211Y18660500D01*
X74766210Y18660500D01*
X74633790Y18660500D01*
X74633789Y18660500D01*
X74506733Y18623193D01*
X74506731Y18623192D01*
X74395337Y18551602D01*
X74388631Y18545791D01*
X74387377Y18547238D01*
X74338023Y18515522D01*
X74303092Y18510500D01*
X71983558Y18510500D01*
X71916519Y18530185D01*
X71889846Y18553296D01*
X71863339Y18583887D01*
X71840786Y18609915D01*
X71811762Y18673471D01*
X71810500Y18691117D01*
X71810500Y23215500D01*
X71830185Y23282539D01*
X71882989Y23328294D01*
X71934500Y23339500D01*
X80334946Y23339500D01*
X82405848Y23339500D01*
X82472887Y23319815D01*
X82518642Y23267011D01*
X82528586Y23197853D01*
X82518642Y23163988D01*
X82503610Y23131075D01*
X82503609Y23131072D01*
X82484765Y23000000D01*
X82503609Y22868929D01*
X82503610Y22868925D01*
X82558617Y22748479D01*
X82558619Y22748475D01*
X82645336Y22648399D01*
X82756734Y22576807D01*
X82846482Y22550455D01*
X82883789Y22539500D01*
X82883790Y22539500D01*
X83016210Y22539500D01*
X83143266Y22576807D01*
X83254664Y22648399D01*
X83341381Y22748475D01*
X83396390Y22868928D01*
X83415235Y23000000D01*
X83396390Y23131072D01*
X83394621Y23134945D01*
X83381358Y23163988D01*
X83371414Y23233146D01*
X83400439Y23296702D01*
X83459217Y23334477D01*
X83494152Y23339500D01*
X113175050Y23339500D01*
X113242089Y23319815D01*
X113262731Y23303181D01*
X113878952Y22686959D01*
X113878955Y22686956D01*
X113987137Y22614671D01*
X114047237Y22589777D01*
X114107339Y22564882D01*
X114234941Y22539501D01*
X114234945Y22539500D01*
X114234946Y22539500D01*
X114365055Y22539500D01*
X114365056Y22539501D01*
X114492661Y22564882D01*
X114612864Y22614672D01*
X114721044Y22686956D01*
X114813044Y22778956D01*
X114885328Y22887136D01*
X114935118Y23007339D01*
X114960500Y23134946D01*
X114960500Y23265054D01*
X114935118Y23392661D01*
X114910223Y23452763D01*
X114885329Y23512863D01*
X114813044Y23621045D01*
X114813041Y23621048D01*
X114146269Y24287819D01*
X114112784Y24349142D01*
X114117768Y24418833D01*
X114159639Y24474767D01*
X114225104Y24499184D01*
X114233950Y24499500D01*
X124376000Y24499500D01*
X124443039Y24479815D01*
X124488794Y24427011D01*
X124500000Y24375500D01*
X124500000Y624500D01*
X124480315Y557461D01*
X124427511Y511706D01*
X124376000Y500500D01*
X624500Y500500D01*
X557461Y520185D01*
X511706Y572989D01*
X500500Y624500D01*
X500500Y12499998D01*
X1634564Y12499998D01*
X1654292Y12136135D01*
X1654293Y12136118D01*
X1713243Y11776544D01*
X1713249Y11776518D01*
X1810730Y11425422D01*
X1810732Y11425415D01*
X1945608Y11086900D01*
X1945613Y11086890D01*
X2116302Y10764936D01*
X2320800Y10463325D01*
X2556709Y10185591D01*
X2821263Y9934992D01*
X3111361Y9714466D01*
X3423601Y9526597D01*
X3423605Y9526596D01*
X3423609Y9526593D01*
X3754313Y9373593D01*
X3754324Y9373588D01*
X4099650Y9257234D01*
X4455533Y9178898D01*
X4817799Y9139500D01*
X4817805Y9139500D01*
X5182195Y9139500D01*
X5182201Y9139500D01*
X5544467Y9178898D01*
X5900350Y9257234D01*
X6245676Y9373588D01*
X6576399Y9526597D01*
X6888639Y9714466D01*
X7178737Y9934992D01*
X7443291Y10185591D01*
X7679200Y10463325D01*
X7883698Y10764936D01*
X8054387Y11086890D01*
X8189266Y11425411D01*
X8286754Y11776531D01*
X8345708Y12136132D01*
X8365436Y12499998D01*
X116634564Y12499998D01*
X116654292Y12136135D01*
X116654293Y12136118D01*
X116713243Y11776544D01*
X116713249Y11776518D01*
X116810730Y11425422D01*
X116810732Y11425415D01*
X116945608Y11086900D01*
X116945613Y11086890D01*
X117116302Y10764936D01*
X117320800Y10463325D01*
X117556709Y10185591D01*
X117821263Y9934992D01*
X118111361Y9714466D01*
X118423601Y9526597D01*
X118423605Y9526596D01*
X118423609Y9526593D01*
X118754313Y9373593D01*
X118754324Y9373588D01*
X119099650Y9257234D01*
X119455533Y9178898D01*
X119817799Y9139500D01*
X119817805Y9139500D01*
X120182195Y9139500D01*
X120182201Y9139500D01*
X120544467Y9178898D01*
X120900350Y9257234D01*
X121245676Y9373588D01*
X121576399Y9526597D01*
X121888639Y9714466D01*
X122178737Y9934992D01*
X122443291Y10185591D01*
X122679200Y10463325D01*
X122883698Y10764936D01*
X123054387Y11086890D01*
X123189266Y11425411D01*
X123286754Y11776531D01*
X123345708Y12136132D01*
X123365436Y12500000D01*
X123345708Y12863868D01*
X123286754Y13223469D01*
X123189266Y13574589D01*
X123054387Y13913110D01*
X122883698Y14235064D01*
X122679200Y14536675D01*
X122443291Y14814409D01*
X122178737Y15065008D01*
X122178730Y15065014D01*
X122178727Y15065016D01*
X122109913Y15117327D01*
X121888639Y15285534D01*
X121681202Y15410345D01*
X121576403Y15473401D01*
X121576390Y15473408D01*
X121245686Y15626408D01*
X121245681Y15626410D01*
X121245676Y15626412D01*
X121077349Y15683128D01*
X120900349Y15742767D01*
X120544465Y15821103D01*
X120182204Y15860500D01*
X120182201Y15860500D01*
X119817799Y15860500D01*
X119817795Y15860500D01*
X119455534Y15821103D01*
X119099650Y15742767D01*
X118832705Y15652822D01*
X118754324Y15626412D01*
X118754321Y15626411D01*
X118754313Y15626408D01*
X118423609Y15473408D01*
X118423596Y15473401D01*
X118163762Y15317064D01*
X118111361Y15285534D01*
X118021445Y15217182D01*
X117821272Y15065016D01*
X117821263Y15065008D01*
X117556706Y14814407D01*
X117556701Y14814401D01*
X117320799Y14536675D01*
X117116302Y14235065D01*
X116945617Y13913119D01*
X116945608Y13913101D01*
X116810732Y13574586D01*
X116810730Y13574579D01*
X116713249Y13223483D01*
X116713243Y13223457D01*
X116654293Y12863883D01*
X116654292Y12863866D01*
X116634564Y12500003D01*
X116634564Y12499998D01*
X8365436Y12499998D01*
X8365436Y12500000D01*
X8345708Y12863868D01*
X8286754Y13223469D01*
X8189266Y13574589D01*
X8054387Y13913110D01*
X7883698Y14235064D01*
X7679200Y14536675D01*
X7443291Y14814409D01*
X7178737Y15065008D01*
X7178730Y15065014D01*
X7178727Y15065016D01*
X7109913Y15117327D01*
X6888639Y15285534D01*
X6681202Y15410345D01*
X6576403Y15473401D01*
X6576390Y15473408D01*
X6245686Y15626408D01*
X6245681Y15626410D01*
X6245676Y15626412D01*
X6077349Y15683128D01*
X5900349Y15742767D01*
X5544465Y15821103D01*
X5182204Y15860500D01*
X5182201Y15860500D01*
X4817799Y15860500D01*
X4817795Y15860500D01*
X4455534Y15821103D01*
X4099650Y15742767D01*
X3832705Y15652822D01*
X3754324Y15626412D01*
X3754321Y15626411D01*
X3754313Y15626408D01*
X3423609Y15473408D01*
X3423596Y15473401D01*
X3163762Y15317064D01*
X3111361Y15285534D01*
X3021445Y15217182D01*
X2821272Y15065016D01*
X2821263Y15065008D01*
X2556706Y14814407D01*
X2556701Y14814401D01*
X2320799Y14536675D01*
X2116302Y14235065D01*
X1945617Y13913119D01*
X1945608Y13913101D01*
X1810732Y13574586D01*
X1810730Y13574579D01*
X1713249Y13223483D01*
X1713243Y13223457D01*
X1654293Y12863883D01*
X1654292Y12863866D01*
X1634564Y12500003D01*
X1634564Y12499998D01*
X500500Y12499998D01*
X500500Y18167689D01*
X11189500Y18167689D01*
X11204723Y18071572D01*
X11204723Y18071571D01*
X11204724Y18071568D01*
X11204725Y18071567D01*
X11216491Y18048474D01*
X11263760Y17955705D01*
X11263763Y17955701D01*
X11355700Y17863764D01*
X11355704Y17863761D01*
X11355706Y17863759D01*
X11471567Y17804725D01*
X11471569Y17804725D01*
X11471571Y17804724D01*
X11500728Y17800107D01*
X11567693Y17789500D01*
X12932306Y17789501D01*
X12932311Y17789501D01*
X12932311Y17789502D01*
X12980369Y17797113D01*
X13028428Y17804724D01*
X13028429Y17804724D01*
X13028430Y17804725D01*
X13028433Y17804725D01*
X13144294Y17863759D01*
X13236241Y17955706D01*
X13295275Y18071567D01*
X13310500Y18167693D01*
X13310500Y18745548D01*
X14689499Y18745548D01*
X14730253Y18540671D01*
X14730255Y18540663D01*
X14810193Y18347672D01*
X14810200Y18347659D01*
X14926255Y18173972D01*
X14926258Y18173968D01*
X15073967Y18026259D01*
X15073971Y18026256D01*
X15247658Y17910201D01*
X15247671Y17910194D01*
X15359777Y17863759D01*
X15440664Y17830255D01*
X15490834Y17820276D01*
X15645547Y17789500D01*
X15645550Y17789500D01*
X15854452Y17789500D01*
X15957593Y17810017D01*
X16059336Y17830255D01*
X16252335Y17910197D01*
X16426029Y18026256D01*
X16573744Y18173971D01*
X16689803Y18347665D01*
X16769745Y18540664D01*
X16796162Y18673471D01*
X16810500Y18745548D01*
X18189499Y18745548D01*
X18230253Y18540671D01*
X18230255Y18540663D01*
X18310193Y18347672D01*
X18310200Y18347659D01*
X18426255Y18173972D01*
X18426258Y18173968D01*
X18573967Y18026259D01*
X18573971Y18026256D01*
X18747658Y17910201D01*
X18747671Y17910194D01*
X18859777Y17863759D01*
X18940664Y17830255D01*
X18990834Y17820276D01*
X19145547Y17789500D01*
X19145550Y17789500D01*
X19354452Y17789500D01*
X19457593Y17810017D01*
X19559336Y17830255D01*
X19752335Y17910197D01*
X19926029Y18026256D01*
X20073744Y18173971D01*
X20189803Y18347665D01*
X20269745Y18540664D01*
X20296162Y18673471D01*
X20310500Y18745548D01*
X21689499Y18745548D01*
X21730253Y18540671D01*
X21730255Y18540663D01*
X21810193Y18347672D01*
X21810200Y18347659D01*
X21926255Y18173972D01*
X21926258Y18173968D01*
X22073967Y18026259D01*
X22073971Y18026256D01*
X22247658Y17910201D01*
X22247671Y17910194D01*
X22359777Y17863759D01*
X22440664Y17830255D01*
X22490834Y17820276D01*
X22645547Y17789500D01*
X22645550Y17789500D01*
X22854452Y17789500D01*
X22957593Y17810017D01*
X23059336Y17830255D01*
X23252335Y17910197D01*
X23426029Y18026256D01*
X23573744Y18173971D01*
X23689803Y18347665D01*
X23769745Y18540664D01*
X23796162Y18673471D01*
X23810500Y18745548D01*
X25189499Y18745548D01*
X25230253Y18540671D01*
X25230255Y18540663D01*
X25310193Y18347672D01*
X25310200Y18347659D01*
X25426255Y18173972D01*
X25426258Y18173968D01*
X25573967Y18026259D01*
X25573971Y18026256D01*
X25747658Y17910201D01*
X25747671Y17910194D01*
X25859777Y17863759D01*
X25940664Y17830255D01*
X25990834Y17820276D01*
X26145547Y17789500D01*
X26145550Y17789500D01*
X26354452Y17789500D01*
X26457593Y17810017D01*
X26559336Y17830255D01*
X26752335Y17910197D01*
X26926029Y18026256D01*
X27073744Y18173971D01*
X27189803Y18347665D01*
X27269745Y18540664D01*
X27296162Y18673471D01*
X27310500Y18745548D01*
X28689499Y18745548D01*
X28730253Y18540671D01*
X28730255Y18540663D01*
X28810193Y18347672D01*
X28810200Y18347659D01*
X28926255Y18173972D01*
X28926258Y18173968D01*
X29073967Y18026259D01*
X29073971Y18026256D01*
X29247658Y17910201D01*
X29247671Y17910194D01*
X29359777Y17863759D01*
X29440664Y17830255D01*
X29490834Y17820276D01*
X29645547Y17789500D01*
X29645550Y17789500D01*
X29854452Y17789500D01*
X29957593Y17810017D01*
X30059336Y17830255D01*
X30252335Y17910197D01*
X30426029Y18026256D01*
X30573744Y18173971D01*
X30689803Y18347665D01*
X30769745Y18540664D01*
X30796162Y18673471D01*
X30810500Y18745548D01*
X32189499Y18745548D01*
X32230253Y18540671D01*
X32230255Y18540663D01*
X32310193Y18347672D01*
X32310200Y18347659D01*
X32426255Y18173972D01*
X32426258Y18173968D01*
X32573967Y18026259D01*
X32573971Y18026256D01*
X32747658Y17910201D01*
X32747671Y17910194D01*
X32859777Y17863759D01*
X32940664Y17830255D01*
X32990834Y17820276D01*
X33145547Y17789500D01*
X33145550Y17789500D01*
X33354452Y17789500D01*
X33457593Y17810017D01*
X33559336Y17830255D01*
X33752335Y17910197D01*
X33926029Y18026256D01*
X34073744Y18173971D01*
X34189803Y18347665D01*
X34269745Y18540664D01*
X34296162Y18673471D01*
X34310500Y18745548D01*
X35689499Y18745548D01*
X35730253Y18540671D01*
X35730255Y18540663D01*
X35810193Y18347672D01*
X35810200Y18347659D01*
X35926255Y18173972D01*
X35926258Y18173968D01*
X36073967Y18026259D01*
X36073971Y18026256D01*
X36247658Y17910201D01*
X36247671Y17910194D01*
X36359777Y17863759D01*
X36440664Y17830255D01*
X36490834Y17820276D01*
X36645547Y17789500D01*
X36645550Y17789500D01*
X36854452Y17789500D01*
X36957593Y17810017D01*
X37059336Y17830255D01*
X37252335Y17910197D01*
X37426029Y18026256D01*
X37573744Y18173971D01*
X37689803Y18347665D01*
X37769745Y18540664D01*
X37796162Y18673471D01*
X37810500Y18745548D01*
X39189499Y18745548D01*
X39230253Y18540671D01*
X39230255Y18540663D01*
X39310193Y18347672D01*
X39310200Y18347659D01*
X39426255Y18173972D01*
X39426258Y18173968D01*
X39573967Y18026259D01*
X39573971Y18026256D01*
X39747658Y17910201D01*
X39747671Y17910194D01*
X39859777Y17863759D01*
X39940664Y17830255D01*
X39990834Y17820276D01*
X40145547Y17789500D01*
X40145550Y17789500D01*
X40354452Y17789500D01*
X40457593Y17810017D01*
X40559336Y17830255D01*
X40752335Y17910197D01*
X40926029Y18026256D01*
X41073744Y18173971D01*
X41189803Y18347665D01*
X41269745Y18540664D01*
X41296162Y18673471D01*
X41309360Y18739819D01*
X42350000Y18739819D01*
X42384473Y18522165D01*
X42452567Y18312590D01*
X42552613Y18116240D01*
X42682142Y17937959D01*
X42837958Y17782143D01*
X43016239Y17652614D01*
X43212589Y17552568D01*
X43422163Y17484474D01*
X43499999Y17472146D01*
X43500000Y17472146D01*
X43500000Y19201518D01*
X43518409Y19190889D01*
X43671009Y19150000D01*
X43828991Y19150000D01*
X43981591Y19190889D01*
X44000000Y19201518D01*
X44000000Y17472146D01*
X44077834Y17484474D01*
X44077837Y17484474D01*
X44287410Y17552568D01*
X44483760Y17652614D01*
X44662041Y17782143D01*
X44817857Y17937959D01*
X44851447Y17984192D01*
X50346999Y17984192D01*
X50356312Y17937377D01*
X50367227Y17921042D01*
X50391786Y17884286D01*
X50436800Y17854209D01*
X50444876Y17848813D01*
X50491691Y17839500D01*
X50491694Y17839500D01*
X52428308Y17839500D01*
X52459518Y17845709D01*
X52475124Y17848813D01*
X52528214Y17884286D01*
X52563687Y17937376D01*
X52573000Y17984194D01*
X52573000Y20015806D01*
X52573000Y20015809D01*
X52563687Y20062624D01*
X52528214Y20115714D01*
X52475124Y20151187D01*
X52475123Y20151188D01*
X52428308Y20160500D01*
X52428306Y20160500D01*
X50491694Y20160500D01*
X50491692Y20160500D01*
X50444876Y20151188D01*
X50391786Y20115714D01*
X50356312Y20062624D01*
X50347000Y20015809D01*
X50347000Y20015806D01*
X50347000Y17984194D01*
X50347000Y17984192D01*
X50346999Y17984192D01*
X44851447Y17984192D01*
X44947386Y18116240D01*
X45047432Y18312590D01*
X45115526Y18522165D01*
X45150000Y18739819D01*
X45150000Y19500000D01*
X44298482Y19500000D01*
X44309111Y19518409D01*
X44350000Y19671009D01*
X44350000Y19828991D01*
X44309111Y19981591D01*
X44298482Y20000000D01*
X45150000Y20000000D01*
X45150000Y20760182D01*
X45115526Y20977836D01*
X45047432Y21187411D01*
X44947386Y21383761D01*
X44817857Y21562042D01*
X44662041Y21717858D01*
X44483760Y21847387D01*
X44287410Y21947433D01*
X44077836Y22015527D01*
X44000000Y22027856D01*
X44000000Y20298483D01*
X43981591Y20309111D01*
X43828991Y20350000D01*
X43671009Y20350000D01*
X43518409Y20309111D01*
X43500000Y20298483D01*
X43500000Y22027856D01*
X43422164Y22015527D01*
X43422161Y22015527D01*
X43212589Y21947433D01*
X43016239Y21847387D01*
X42837958Y21717858D01*
X42682142Y21562042D01*
X42552613Y21383761D01*
X42452567Y21187411D01*
X42384473Y20977836D01*
X42350000Y20760182D01*
X42350000Y20000000D01*
X43201518Y20000000D01*
X43190889Y19981591D01*
X43150000Y19828991D01*
X43150000Y19671009D01*
X43190889Y19518409D01*
X43201518Y19500000D01*
X42350000Y19500000D01*
X42350000Y18739819D01*
X41309360Y18739819D01*
X41310500Y18745548D01*
X41310500Y20754453D01*
X41269746Y20959330D01*
X41269745Y20959336D01*
X41249759Y21007586D01*
X41189806Y21152329D01*
X41189799Y21152342D01*
X41073744Y21326029D01*
X41073741Y21326033D01*
X40926032Y21473742D01*
X40926028Y21473745D01*
X40752341Y21589800D01*
X40752328Y21589807D01*
X40559337Y21669745D01*
X40559329Y21669747D01*
X40354452Y21710500D01*
X40354450Y21710500D01*
X40145550Y21710500D01*
X40145548Y21710500D01*
X39940670Y21669747D01*
X39940662Y21669745D01*
X39747671Y21589807D01*
X39747658Y21589800D01*
X39573971Y21473745D01*
X39573967Y21473742D01*
X39426258Y21326033D01*
X39426255Y21326029D01*
X39310200Y21152342D01*
X39310193Y21152329D01*
X39230255Y20959338D01*
X39230253Y20959330D01*
X39189500Y20754453D01*
X39189500Y20754450D01*
X39189500Y18745550D01*
X39189500Y18745548D01*
X39189499Y18745548D01*
X37810500Y18745548D01*
X37810500Y20754453D01*
X37769746Y20959330D01*
X37769745Y20959336D01*
X37749759Y21007586D01*
X37689806Y21152329D01*
X37689799Y21152342D01*
X37573744Y21326029D01*
X37573741Y21326033D01*
X37426032Y21473742D01*
X37426028Y21473745D01*
X37252341Y21589800D01*
X37252328Y21589807D01*
X37059337Y21669745D01*
X37059329Y21669747D01*
X36854452Y21710500D01*
X36854450Y21710500D01*
X36645550Y21710500D01*
X36645548Y21710500D01*
X36440670Y21669747D01*
X36440662Y21669745D01*
X36247671Y21589807D01*
X36247658Y21589800D01*
X36073971Y21473745D01*
X36073967Y21473742D01*
X35926258Y21326033D01*
X35926255Y21326029D01*
X35810200Y21152342D01*
X35810193Y21152329D01*
X35730255Y20959338D01*
X35730253Y20959330D01*
X35689500Y20754453D01*
X35689500Y20754450D01*
X35689500Y18745550D01*
X35689500Y18745548D01*
X35689499Y18745548D01*
X34310500Y18745548D01*
X34310500Y20754453D01*
X34269746Y20959330D01*
X34269745Y20959336D01*
X34249759Y21007586D01*
X34189806Y21152329D01*
X34189799Y21152342D01*
X34073744Y21326029D01*
X34073741Y21326033D01*
X33926032Y21473742D01*
X33926028Y21473745D01*
X33752341Y21589800D01*
X33752328Y21589807D01*
X33559337Y21669745D01*
X33559329Y21669747D01*
X33354452Y21710500D01*
X33354450Y21710500D01*
X33145550Y21710500D01*
X33145548Y21710500D01*
X32940670Y21669747D01*
X32940662Y21669745D01*
X32747671Y21589807D01*
X32747658Y21589800D01*
X32573971Y21473745D01*
X32573967Y21473742D01*
X32426258Y21326033D01*
X32426255Y21326029D01*
X32310200Y21152342D01*
X32310193Y21152329D01*
X32230255Y20959338D01*
X32230253Y20959330D01*
X32189500Y20754453D01*
X32189500Y20754450D01*
X32189500Y18745550D01*
X32189500Y18745548D01*
X32189499Y18745548D01*
X30810500Y18745548D01*
X30810500Y20754453D01*
X30769746Y20959330D01*
X30769745Y20959336D01*
X30749759Y21007586D01*
X30689806Y21152329D01*
X30689799Y21152342D01*
X30573744Y21326029D01*
X30573741Y21326033D01*
X30426032Y21473742D01*
X30426028Y21473745D01*
X30252341Y21589800D01*
X30252328Y21589807D01*
X30059337Y21669745D01*
X30059329Y21669747D01*
X29854452Y21710500D01*
X29854450Y21710500D01*
X29645550Y21710500D01*
X29645548Y21710500D01*
X29440670Y21669747D01*
X29440662Y21669745D01*
X29247671Y21589807D01*
X29247658Y21589800D01*
X29073971Y21473745D01*
X29073967Y21473742D01*
X28926258Y21326033D01*
X28926255Y21326029D01*
X28810200Y21152342D01*
X28810193Y21152329D01*
X28730255Y20959338D01*
X28730253Y20959330D01*
X28689500Y20754453D01*
X28689500Y20754450D01*
X28689500Y18745550D01*
X28689500Y18745548D01*
X28689499Y18745548D01*
X27310500Y18745548D01*
X27310500Y20754453D01*
X27269746Y20959330D01*
X27269745Y20959336D01*
X27249759Y21007586D01*
X27189806Y21152329D01*
X27189799Y21152342D01*
X27073744Y21326029D01*
X27073741Y21326033D01*
X26926032Y21473742D01*
X26926028Y21473745D01*
X26752341Y21589800D01*
X26752328Y21589807D01*
X26559337Y21669745D01*
X26559329Y21669747D01*
X26354452Y21710500D01*
X26354450Y21710500D01*
X26145550Y21710500D01*
X26145548Y21710500D01*
X25940670Y21669747D01*
X25940662Y21669745D01*
X25747671Y21589807D01*
X25747658Y21589800D01*
X25573971Y21473745D01*
X25573967Y21473742D01*
X25426258Y21326033D01*
X25426255Y21326029D01*
X25310200Y21152342D01*
X25310193Y21152329D01*
X25230255Y20959338D01*
X25230253Y20959330D01*
X25189500Y20754453D01*
X25189500Y20754450D01*
X25189500Y18745550D01*
X25189500Y18745548D01*
X25189499Y18745548D01*
X23810500Y18745548D01*
X23810500Y20754453D01*
X23769746Y20959330D01*
X23769745Y20959336D01*
X23749759Y21007586D01*
X23689806Y21152329D01*
X23689799Y21152342D01*
X23573744Y21326029D01*
X23573741Y21326033D01*
X23426032Y21473742D01*
X23426028Y21473745D01*
X23252341Y21589800D01*
X23252328Y21589807D01*
X23059337Y21669745D01*
X23059329Y21669747D01*
X22854452Y21710500D01*
X22854450Y21710500D01*
X22645550Y21710500D01*
X22645548Y21710500D01*
X22440670Y21669747D01*
X22440662Y21669745D01*
X22247671Y21589807D01*
X22247658Y21589800D01*
X22073971Y21473745D01*
X22073967Y21473742D01*
X21926258Y21326033D01*
X21926255Y21326029D01*
X21810200Y21152342D01*
X21810193Y21152329D01*
X21730255Y20959338D01*
X21730253Y20959330D01*
X21689500Y20754453D01*
X21689500Y20754450D01*
X21689500Y18745550D01*
X21689500Y18745548D01*
X21689499Y18745548D01*
X20310500Y18745548D01*
X20310500Y20754453D01*
X20269746Y20959330D01*
X20269745Y20959336D01*
X20249759Y21007586D01*
X20189806Y21152329D01*
X20189799Y21152342D01*
X20073744Y21326029D01*
X20073741Y21326033D01*
X19926032Y21473742D01*
X19926028Y21473745D01*
X19752341Y21589800D01*
X19752328Y21589807D01*
X19559337Y21669745D01*
X19559329Y21669747D01*
X19354452Y21710500D01*
X19354450Y21710500D01*
X19145550Y21710500D01*
X19145548Y21710500D01*
X18940670Y21669747D01*
X18940662Y21669745D01*
X18747671Y21589807D01*
X18747658Y21589800D01*
X18573971Y21473745D01*
X18573967Y21473742D01*
X18426258Y21326033D01*
X18426255Y21326029D01*
X18310200Y21152342D01*
X18310193Y21152329D01*
X18230255Y20959338D01*
X18230253Y20959330D01*
X18189500Y20754453D01*
X18189500Y20754450D01*
X18189500Y18745550D01*
X18189500Y18745548D01*
X18189499Y18745548D01*
X16810500Y18745548D01*
X16810500Y20754453D01*
X16769746Y20959330D01*
X16769745Y20959336D01*
X16749759Y21007586D01*
X16689806Y21152329D01*
X16689799Y21152342D01*
X16573744Y21326029D01*
X16573741Y21326033D01*
X16426032Y21473742D01*
X16426028Y21473745D01*
X16252341Y21589800D01*
X16252328Y21589807D01*
X16059337Y21669745D01*
X16059329Y21669747D01*
X15854452Y21710500D01*
X15854450Y21710500D01*
X15645550Y21710500D01*
X15645548Y21710500D01*
X15440670Y21669747D01*
X15440662Y21669745D01*
X15247671Y21589807D01*
X15247658Y21589800D01*
X15073971Y21473745D01*
X15073967Y21473742D01*
X14926258Y21326033D01*
X14926255Y21326029D01*
X14810200Y21152342D01*
X14810193Y21152329D01*
X14730255Y20959338D01*
X14730253Y20959330D01*
X14689500Y20754453D01*
X14689500Y20754450D01*
X14689500Y18745550D01*
X14689500Y18745548D01*
X14689499Y18745548D01*
X13310500Y18745548D01*
X13310499Y21332306D01*
X13310499Y21332308D01*
X13310499Y21332312D01*
X13295276Y21428429D01*
X13295276Y21428430D01*
X13295275Y21428432D01*
X13295275Y21428433D01*
X13236241Y21544294D01*
X13236239Y21544296D01*
X13236236Y21544300D01*
X13144299Y21636237D01*
X13144295Y21636240D01*
X13144294Y21636241D01*
X13028433Y21695275D01*
X13028431Y21695276D01*
X13028428Y21695277D01*
X12932307Y21710500D01*
X11567688Y21710500D01*
X11567688Y21710499D01*
X11471571Y21695277D01*
X11471570Y21695277D01*
X11355704Y21636240D01*
X11355700Y21636237D01*
X11263763Y21544300D01*
X11263760Y21544296D01*
X11204723Y21428429D01*
X11189500Y21332308D01*
X11189500Y18167689D01*
X500500Y18167689D01*
X500500Y24375500D01*
X520185Y24442539D01*
X572989Y24488294D01*
X624500Y24499500D01*
X57066050Y24499500D01*
X57133089Y24479815D01*
G37*
%TD.AperFunction*%
%TD*%
M02*
