%TF.GenerationSoftware,KiCad,Pcbnew,8.0.1*%
%TF.CreationDate,2025-01-20T12:05:53-05:00*%
%TF.ProjectId,200280,32303032-3830-42e6-9b69-6361645f7063,rev?*%
%TF.SameCoordinates,PX3473bc0PY5f5e100*%
%TF.FileFunction,Legend,Top*%
%TF.FilePolarity,Positive*%
%FSLAX46Y46*%
G04 Gerber Fmt 4.6, Leading zero omitted, Abs format (unit mm)*
G04 Created by KiCad (PCBNEW 8.0.1) date 2025-01-20 12:05:53*
%MOMM*%
%LPD*%
G01*
G04 APERTURE LIST*
%ADD10C,0.200000*%
%ADD11C,0.250000*%
%ADD12C,0.150000*%
%ADD13C,0.106680*%
%ADD14C,0.120000*%
%ADD15C,0.100000*%
%ADD16C,0.127000*%
%ADD17C,0.504000*%
G04 APERTURE END LIST*
D10*
X12279685Y12711280D02*
X12208257Y12496994D01*
X12208257Y12496994D02*
X12136828Y12425565D01*
X12136828Y12425565D02*
X11993971Y12354137D01*
X11993971Y12354137D02*
X11779685Y12354137D01*
X11779685Y12354137D02*
X11636828Y12425565D01*
X11636828Y12425565D02*
X11565400Y12496994D01*
X11565400Y12496994D02*
X11493971Y12639851D01*
X11493971Y12639851D02*
X11493971Y13211280D01*
X11493971Y13211280D02*
X12993971Y13211280D01*
X12993971Y13211280D02*
X12993971Y12711280D01*
X12993971Y12711280D02*
X12922542Y12568422D01*
X12922542Y12568422D02*
X12851114Y12496994D01*
X12851114Y12496994D02*
X12708257Y12425565D01*
X12708257Y12425565D02*
X12565400Y12425565D01*
X12565400Y12425565D02*
X12422542Y12496994D01*
X12422542Y12496994D02*
X12351114Y12568422D01*
X12351114Y12568422D02*
X12279685Y12711280D01*
X12279685Y12711280D02*
X12279685Y13211280D01*
X12493971Y11068422D02*
X11493971Y11068422D01*
X12493971Y11711280D02*
X11708257Y11711280D01*
X11708257Y11711280D02*
X11565400Y11639851D01*
X11565400Y11639851D02*
X11493971Y11496994D01*
X11493971Y11496994D02*
X11493971Y11282708D01*
X11493971Y11282708D02*
X11565400Y11139851D01*
X11565400Y11139851D02*
X11636828Y11068422D01*
X12493971Y10568422D02*
X12493971Y9996994D01*
X12993971Y10354137D02*
X11708257Y10354137D01*
X11708257Y10354137D02*
X11565400Y10282708D01*
X11565400Y10282708D02*
X11493971Y10139851D01*
X11493971Y10139851D02*
X11493971Y9996994D01*
X12493971Y9711279D02*
X12493971Y9139851D01*
X12993971Y9496994D02*
X11708257Y9496994D01*
X11708257Y9496994D02*
X11565400Y9425565D01*
X11565400Y9425565D02*
X11493971Y9282708D01*
X11493971Y9282708D02*
X11493971Y9139851D01*
X11493971Y8425565D02*
X11565400Y8568422D01*
X11565400Y8568422D02*
X11636828Y8639851D01*
X11636828Y8639851D02*
X11779685Y8711279D01*
X11779685Y8711279D02*
X12208257Y8711279D01*
X12208257Y8711279D02*
X12351114Y8639851D01*
X12351114Y8639851D02*
X12422542Y8568422D01*
X12422542Y8568422D02*
X12493971Y8425565D01*
X12493971Y8425565D02*
X12493971Y8211279D01*
X12493971Y8211279D02*
X12422542Y8068422D01*
X12422542Y8068422D02*
X12351114Y7996993D01*
X12351114Y7996993D02*
X12208257Y7925565D01*
X12208257Y7925565D02*
X11779685Y7925565D01*
X11779685Y7925565D02*
X11636828Y7996993D01*
X11636828Y7996993D02*
X11565400Y8068422D01*
X11565400Y8068422D02*
X11493971Y8211279D01*
X11493971Y8211279D02*
X11493971Y8425565D01*
X12493971Y7282708D02*
X11493971Y7282708D01*
X12351114Y7282708D02*
X12422542Y7211279D01*
X12422542Y7211279D02*
X12493971Y7068422D01*
X12493971Y7068422D02*
X12493971Y6854136D01*
X12493971Y6854136D02*
X12422542Y6711279D01*
X12422542Y6711279D02*
X12279685Y6639850D01*
X12279685Y6639850D02*
X11493971Y6639850D01*
X12993971Y4496993D02*
X12993971Y4211279D01*
X12993971Y4211279D02*
X12922542Y4068422D01*
X12922542Y4068422D02*
X12779685Y3925565D01*
X12779685Y3925565D02*
X12493971Y3854136D01*
X12493971Y3854136D02*
X11993971Y3854136D01*
X11993971Y3854136D02*
X11708257Y3925565D01*
X11708257Y3925565D02*
X11565400Y4068422D01*
X11565400Y4068422D02*
X11493971Y4211279D01*
X11493971Y4211279D02*
X11493971Y4496993D01*
X11493971Y4496993D02*
X11565400Y4639850D01*
X11565400Y4639850D02*
X11708257Y4782708D01*
X11708257Y4782708D02*
X11993971Y4854136D01*
X11993971Y4854136D02*
X12493971Y4854136D01*
X12493971Y4854136D02*
X12779685Y4782708D01*
X12779685Y4782708D02*
X12922542Y4639850D01*
X12922542Y4639850D02*
X12993971Y4496993D01*
X12493971Y2568421D02*
X11493971Y2568421D01*
X12493971Y3211279D02*
X11708257Y3211279D01*
X11708257Y3211279D02*
X11565400Y3139850D01*
X11565400Y3139850D02*
X11493971Y2996993D01*
X11493971Y2996993D02*
X11493971Y2782707D01*
X11493971Y2782707D02*
X11565400Y2639850D01*
X11565400Y2639850D02*
X11636828Y2568421D01*
X12493971Y2068421D02*
X12493971Y1496993D01*
X12993971Y1854136D02*
X11708257Y1854136D01*
X11708257Y1854136D02*
X11565400Y1782707D01*
X11565400Y1782707D02*
X11493971Y1639850D01*
X11493971Y1639850D02*
X11493971Y1496993D01*
X18393971Y12354137D02*
X19108257Y12854137D01*
X18393971Y13211280D02*
X19893971Y13211280D01*
X19893971Y13211280D02*
X19893971Y12639851D01*
X19893971Y12639851D02*
X19822542Y12496994D01*
X19822542Y12496994D02*
X19751114Y12425565D01*
X19751114Y12425565D02*
X19608257Y12354137D01*
X19608257Y12354137D02*
X19393971Y12354137D01*
X19393971Y12354137D02*
X19251114Y12425565D01*
X19251114Y12425565D02*
X19179685Y12496994D01*
X19179685Y12496994D02*
X19108257Y12639851D01*
X19108257Y12639851D02*
X19108257Y13211280D01*
X18465400Y11139851D02*
X18393971Y11282708D01*
X18393971Y11282708D02*
X18393971Y11568422D01*
X18393971Y11568422D02*
X18465400Y11711280D01*
X18465400Y11711280D02*
X18608257Y11782708D01*
X18608257Y11782708D02*
X19179685Y11782708D01*
X19179685Y11782708D02*
X19322542Y11711280D01*
X19322542Y11711280D02*
X19393971Y11568422D01*
X19393971Y11568422D02*
X19393971Y11282708D01*
X19393971Y11282708D02*
X19322542Y11139851D01*
X19322542Y11139851D02*
X19179685Y11068422D01*
X19179685Y11068422D02*
X19036828Y11068422D01*
X19036828Y11068422D02*
X18893971Y11782708D01*
X18393971Y10211280D02*
X18465400Y10354137D01*
X18465400Y10354137D02*
X18608257Y10425566D01*
X18608257Y10425566D02*
X19893971Y10425566D01*
X18393971Y8996994D02*
X19179685Y8996994D01*
X19179685Y8996994D02*
X19322542Y9068423D01*
X19322542Y9068423D02*
X19393971Y9211280D01*
X19393971Y9211280D02*
X19393971Y9496994D01*
X19393971Y9496994D02*
X19322542Y9639852D01*
X18465400Y8996994D02*
X18393971Y9139852D01*
X18393971Y9139852D02*
X18393971Y9496994D01*
X18393971Y9496994D02*
X18465400Y9639852D01*
X18465400Y9639852D02*
X18608257Y9711280D01*
X18608257Y9711280D02*
X18751114Y9711280D01*
X18751114Y9711280D02*
X18893971Y9639852D01*
X18893971Y9639852D02*
X18965400Y9496994D01*
X18965400Y9496994D02*
X18965400Y9139852D01*
X18965400Y9139852D02*
X19036828Y8996994D01*
X19393971Y8425566D02*
X18393971Y8068423D01*
X19393971Y7711280D02*
X18393971Y8068423D01*
X18393971Y8068423D02*
X18036828Y8211280D01*
X18036828Y8211280D02*
X17965400Y8282709D01*
X17965400Y8282709D02*
X17893971Y8425566D01*
X19893971Y7282709D02*
X19893971Y6354137D01*
X19893971Y6354137D02*
X19322542Y6854137D01*
X19322542Y6854137D02*
X19322542Y6639852D01*
X19322542Y6639852D02*
X19251114Y6496994D01*
X19251114Y6496994D02*
X19179685Y6425566D01*
X19179685Y6425566D02*
X19036828Y6354137D01*
X19036828Y6354137D02*
X18679685Y6354137D01*
X18679685Y6354137D02*
X18536828Y6425566D01*
X18536828Y6425566D02*
X18465400Y6496994D01*
X18465400Y6496994D02*
X18393971Y6639852D01*
X18393971Y6639852D02*
X18393971Y7068423D01*
X18393971Y7068423D02*
X18465400Y7211280D01*
X18465400Y7211280D02*
X18536828Y7282709D01*
X21893971Y12354137D02*
X22608257Y12854137D01*
X21893971Y13211280D02*
X23393971Y13211280D01*
X23393971Y13211280D02*
X23393971Y12639851D01*
X23393971Y12639851D02*
X23322542Y12496994D01*
X23322542Y12496994D02*
X23251114Y12425565D01*
X23251114Y12425565D02*
X23108257Y12354137D01*
X23108257Y12354137D02*
X22893971Y12354137D01*
X22893971Y12354137D02*
X22751114Y12425565D01*
X22751114Y12425565D02*
X22679685Y12496994D01*
X22679685Y12496994D02*
X22608257Y12639851D01*
X22608257Y12639851D02*
X22608257Y13211280D01*
X21965400Y11139851D02*
X21893971Y11282708D01*
X21893971Y11282708D02*
X21893971Y11568422D01*
X21893971Y11568422D02*
X21965400Y11711280D01*
X21965400Y11711280D02*
X22108257Y11782708D01*
X22108257Y11782708D02*
X22679685Y11782708D01*
X22679685Y11782708D02*
X22822542Y11711280D01*
X22822542Y11711280D02*
X22893971Y11568422D01*
X22893971Y11568422D02*
X22893971Y11282708D01*
X22893971Y11282708D02*
X22822542Y11139851D01*
X22822542Y11139851D02*
X22679685Y11068422D01*
X22679685Y11068422D02*
X22536828Y11068422D01*
X22536828Y11068422D02*
X22393971Y11782708D01*
X21893971Y10211280D02*
X21965400Y10354137D01*
X21965400Y10354137D02*
X22108257Y10425566D01*
X22108257Y10425566D02*
X23393971Y10425566D01*
X21893971Y8996994D02*
X22679685Y8996994D01*
X22679685Y8996994D02*
X22822542Y9068423D01*
X22822542Y9068423D02*
X22893971Y9211280D01*
X22893971Y9211280D02*
X22893971Y9496994D01*
X22893971Y9496994D02*
X22822542Y9639852D01*
X21965400Y8996994D02*
X21893971Y9139852D01*
X21893971Y9139852D02*
X21893971Y9496994D01*
X21893971Y9496994D02*
X21965400Y9639852D01*
X21965400Y9639852D02*
X22108257Y9711280D01*
X22108257Y9711280D02*
X22251114Y9711280D01*
X22251114Y9711280D02*
X22393971Y9639852D01*
X22393971Y9639852D02*
X22465400Y9496994D01*
X22465400Y9496994D02*
X22465400Y9139852D01*
X22465400Y9139852D02*
X22536828Y8996994D01*
X22893971Y8425566D02*
X21893971Y8068423D01*
X22893971Y7711280D02*
X21893971Y8068423D01*
X21893971Y8068423D02*
X21536828Y8211280D01*
X21536828Y8211280D02*
X21465400Y8282709D01*
X21465400Y8282709D02*
X21393971Y8425566D01*
X23251114Y7211280D02*
X23322542Y7139852D01*
X23322542Y7139852D02*
X23393971Y6996994D01*
X23393971Y6996994D02*
X23393971Y6639852D01*
X23393971Y6639852D02*
X23322542Y6496994D01*
X23322542Y6496994D02*
X23251114Y6425566D01*
X23251114Y6425566D02*
X23108257Y6354137D01*
X23108257Y6354137D02*
X22965400Y6354137D01*
X22965400Y6354137D02*
X22751114Y6425566D01*
X22751114Y6425566D02*
X21893971Y7282709D01*
X21893971Y7282709D02*
X21893971Y6354137D01*
X44322542Y12425565D02*
X44393971Y12568422D01*
X44393971Y12568422D02*
X44393971Y12782708D01*
X44393971Y12782708D02*
X44322542Y12996994D01*
X44322542Y12996994D02*
X44179685Y13139851D01*
X44179685Y13139851D02*
X44036828Y13211280D01*
X44036828Y13211280D02*
X43751114Y13282708D01*
X43751114Y13282708D02*
X43536828Y13282708D01*
X43536828Y13282708D02*
X43251114Y13211280D01*
X43251114Y13211280D02*
X43108257Y13139851D01*
X43108257Y13139851D02*
X42965400Y12996994D01*
X42965400Y12996994D02*
X42893971Y12782708D01*
X42893971Y12782708D02*
X42893971Y12639851D01*
X42893971Y12639851D02*
X42965400Y12425565D01*
X42965400Y12425565D02*
X43036828Y12354137D01*
X43036828Y12354137D02*
X43536828Y12354137D01*
X43536828Y12354137D02*
X43536828Y12639851D01*
X42893971Y11711280D02*
X44393971Y11711280D01*
X44393971Y11711280D02*
X42893971Y10854137D01*
X42893971Y10854137D02*
X44393971Y10854137D01*
X42893971Y10139851D02*
X44393971Y10139851D01*
X44393971Y10139851D02*
X44393971Y9782708D01*
X44393971Y9782708D02*
X44322542Y9568422D01*
X44322542Y9568422D02*
X44179685Y9425565D01*
X44179685Y9425565D02*
X44036828Y9354136D01*
X44036828Y9354136D02*
X43751114Y9282708D01*
X43751114Y9282708D02*
X43536828Y9282708D01*
X43536828Y9282708D02*
X43251114Y9354136D01*
X43251114Y9354136D02*
X43108257Y9425565D01*
X43108257Y9425565D02*
X42965400Y9568422D01*
X42965400Y9568422D02*
X42893971Y9782708D01*
X42893971Y9782708D02*
X42893971Y10139851D01*
X39793971Y13211280D02*
X41293971Y13211280D01*
X41293971Y13211280D02*
X41293971Y12639851D01*
X41293971Y12639851D02*
X41222542Y12496994D01*
X41222542Y12496994D02*
X41151114Y12425565D01*
X41151114Y12425565D02*
X41008257Y12354137D01*
X41008257Y12354137D02*
X40793971Y12354137D01*
X40793971Y12354137D02*
X40651114Y12425565D01*
X40651114Y12425565D02*
X40579685Y12496994D01*
X40579685Y12496994D02*
X40508257Y12639851D01*
X40508257Y12639851D02*
X40508257Y13211280D01*
X39793971Y11496994D02*
X39865400Y11639851D01*
X39865400Y11639851D02*
X39936828Y11711280D01*
X39936828Y11711280D02*
X40079685Y11782708D01*
X40079685Y11782708D02*
X40508257Y11782708D01*
X40508257Y11782708D02*
X40651114Y11711280D01*
X40651114Y11711280D02*
X40722542Y11639851D01*
X40722542Y11639851D02*
X40793971Y11496994D01*
X40793971Y11496994D02*
X40793971Y11282708D01*
X40793971Y11282708D02*
X40722542Y11139851D01*
X40722542Y11139851D02*
X40651114Y11068422D01*
X40651114Y11068422D02*
X40508257Y10996994D01*
X40508257Y10996994D02*
X40079685Y10996994D01*
X40079685Y10996994D02*
X39936828Y11068422D01*
X39936828Y11068422D02*
X39865400Y11139851D01*
X39865400Y11139851D02*
X39793971Y11282708D01*
X39793971Y11282708D02*
X39793971Y11496994D01*
X40793971Y10496994D02*
X39793971Y10211279D01*
X39793971Y10211279D02*
X40508257Y9925565D01*
X40508257Y9925565D02*
X39793971Y9639851D01*
X39793971Y9639851D02*
X40793971Y9354137D01*
X39865400Y8211279D02*
X39793971Y8354136D01*
X39793971Y8354136D02*
X39793971Y8639850D01*
X39793971Y8639850D02*
X39865400Y8782708D01*
X39865400Y8782708D02*
X40008257Y8854136D01*
X40008257Y8854136D02*
X40579685Y8854136D01*
X40579685Y8854136D02*
X40722542Y8782708D01*
X40722542Y8782708D02*
X40793971Y8639850D01*
X40793971Y8639850D02*
X40793971Y8354136D01*
X40793971Y8354136D02*
X40722542Y8211279D01*
X40722542Y8211279D02*
X40579685Y8139850D01*
X40579685Y8139850D02*
X40436828Y8139850D01*
X40436828Y8139850D02*
X40293971Y8854136D01*
X39793971Y7496994D02*
X40793971Y7496994D01*
X40508257Y7496994D02*
X40651114Y7425565D01*
X40651114Y7425565D02*
X40722542Y7354136D01*
X40722542Y7354136D02*
X40793971Y7211279D01*
X40793971Y7211279D02*
X40793971Y7068422D01*
X39793971Y6568423D02*
X41293971Y6568423D01*
X40793971Y5854137D02*
X39793971Y5854137D01*
X40651114Y5854137D02*
X40722542Y5782708D01*
X40722542Y5782708D02*
X40793971Y5639851D01*
X40793971Y5639851D02*
X40793971Y5425565D01*
X40793971Y5425565D02*
X40722542Y5282708D01*
X40722542Y5282708D02*
X40579685Y5211279D01*
X40579685Y5211279D02*
X39793971Y5211279D01*
X39793971Y3354137D02*
X41293971Y3354137D01*
X41293971Y3354137D02*
X41293971Y2996994D01*
X41293971Y2996994D02*
X41222542Y2782708D01*
X41222542Y2782708D02*
X41079685Y2639851D01*
X41079685Y2639851D02*
X40936828Y2568422D01*
X40936828Y2568422D02*
X40651114Y2496994D01*
X40651114Y2496994D02*
X40436828Y2496994D01*
X40436828Y2496994D02*
X40151114Y2568422D01*
X40151114Y2568422D02*
X40008257Y2639851D01*
X40008257Y2639851D02*
X39865400Y2782708D01*
X39865400Y2782708D02*
X39793971Y2996994D01*
X39793971Y2996994D02*
X39793971Y3354137D01*
X39936828Y996994D02*
X39865400Y1068422D01*
X39865400Y1068422D02*
X39793971Y1282708D01*
X39793971Y1282708D02*
X39793971Y1425565D01*
X39793971Y1425565D02*
X39865400Y1639851D01*
X39865400Y1639851D02*
X40008257Y1782708D01*
X40008257Y1782708D02*
X40151114Y1854137D01*
X40151114Y1854137D02*
X40436828Y1925565D01*
X40436828Y1925565D02*
X40651114Y1925565D01*
X40651114Y1925565D02*
X40936828Y1854137D01*
X40936828Y1854137D02*
X41079685Y1782708D01*
X41079685Y1782708D02*
X41222542Y1639851D01*
X41222542Y1639851D02*
X41293971Y1425565D01*
X41293971Y1425565D02*
X41293971Y1282708D01*
X41293971Y1282708D02*
X41222542Y1068422D01*
X41222542Y1068422D02*
X41151114Y996994D01*
X25493971Y12496994D02*
X25493971Y13211280D01*
X25493971Y13211280D02*
X26993971Y13211280D01*
X25493971Y11996994D02*
X26493971Y11996994D01*
X26993971Y11996994D02*
X26922542Y12068422D01*
X26922542Y12068422D02*
X26851114Y11996994D01*
X26851114Y11996994D02*
X26922542Y11925565D01*
X26922542Y11925565D02*
X26993971Y11996994D01*
X26993971Y11996994D02*
X26851114Y11996994D01*
X26493971Y10639850D02*
X25279685Y10639850D01*
X25279685Y10639850D02*
X25136828Y10711279D01*
X25136828Y10711279D02*
X25065400Y10782708D01*
X25065400Y10782708D02*
X24993971Y10925565D01*
X24993971Y10925565D02*
X24993971Y11139850D01*
X24993971Y11139850D02*
X25065400Y11282708D01*
X25565400Y10639850D02*
X25493971Y10782708D01*
X25493971Y10782708D02*
X25493971Y11068422D01*
X25493971Y11068422D02*
X25565400Y11211279D01*
X25565400Y11211279D02*
X25636828Y11282708D01*
X25636828Y11282708D02*
X25779685Y11354136D01*
X25779685Y11354136D02*
X26208257Y11354136D01*
X26208257Y11354136D02*
X26351114Y11282708D01*
X26351114Y11282708D02*
X26422542Y11211279D01*
X26422542Y11211279D02*
X26493971Y11068422D01*
X26493971Y11068422D02*
X26493971Y10782708D01*
X26493971Y10782708D02*
X26422542Y10639850D01*
X25493971Y9925565D02*
X26993971Y9925565D01*
X25493971Y9282707D02*
X26279685Y9282707D01*
X26279685Y9282707D02*
X26422542Y9354136D01*
X26422542Y9354136D02*
X26493971Y9496993D01*
X26493971Y9496993D02*
X26493971Y9711279D01*
X26493971Y9711279D02*
X26422542Y9854136D01*
X26422542Y9854136D02*
X26351114Y9925565D01*
X26493971Y8782707D02*
X26493971Y8211279D01*
X26993971Y8568422D02*
X25708257Y8568422D01*
X25708257Y8568422D02*
X25565400Y8496993D01*
X25565400Y8496993D02*
X25493971Y8354136D01*
X25493971Y8354136D02*
X25493971Y8211279D01*
X29036828Y12254137D02*
X28965400Y12325565D01*
X28965400Y12325565D02*
X28893971Y12539851D01*
X28893971Y12539851D02*
X28893971Y12682708D01*
X28893971Y12682708D02*
X28965400Y12896994D01*
X28965400Y12896994D02*
X29108257Y13039851D01*
X29108257Y13039851D02*
X29251114Y13111280D01*
X29251114Y13111280D02*
X29536828Y13182708D01*
X29536828Y13182708D02*
X29751114Y13182708D01*
X29751114Y13182708D02*
X30036828Y13111280D01*
X30036828Y13111280D02*
X30179685Y13039851D01*
X30179685Y13039851D02*
X30322542Y12896994D01*
X30322542Y12896994D02*
X30393971Y12682708D01*
X30393971Y12682708D02*
X30393971Y12539851D01*
X30393971Y12539851D02*
X30322542Y12325565D01*
X30322542Y12325565D02*
X30251114Y12254137D01*
X28893971Y11396994D02*
X28965400Y11539851D01*
X28965400Y11539851D02*
X29108257Y11611280D01*
X29108257Y11611280D02*
X30393971Y11611280D01*
X28893971Y10611280D02*
X28965400Y10754137D01*
X28965400Y10754137D02*
X29036828Y10825566D01*
X29036828Y10825566D02*
X29179685Y10896994D01*
X29179685Y10896994D02*
X29608257Y10896994D01*
X29608257Y10896994D02*
X29751114Y10825566D01*
X29751114Y10825566D02*
X29822542Y10754137D01*
X29822542Y10754137D02*
X29893971Y10611280D01*
X29893971Y10611280D02*
X29893971Y10396994D01*
X29893971Y10396994D02*
X29822542Y10254137D01*
X29822542Y10254137D02*
X29751114Y10182708D01*
X29751114Y10182708D02*
X29608257Y10111280D01*
X29608257Y10111280D02*
X29179685Y10111280D01*
X29179685Y10111280D02*
X29036828Y10182708D01*
X29036828Y10182708D02*
X28965400Y10254137D01*
X28965400Y10254137D02*
X28893971Y10396994D01*
X28893971Y10396994D02*
X28893971Y10611280D01*
X28965400Y9539851D02*
X28893971Y9396994D01*
X28893971Y9396994D02*
X28893971Y9111280D01*
X28893971Y9111280D02*
X28965400Y8968423D01*
X28965400Y8968423D02*
X29108257Y8896994D01*
X29108257Y8896994D02*
X29179685Y8896994D01*
X29179685Y8896994D02*
X29322542Y8968423D01*
X29322542Y8968423D02*
X29393971Y9111280D01*
X29393971Y9111280D02*
X29393971Y9325565D01*
X29393971Y9325565D02*
X29465400Y9468423D01*
X29465400Y9468423D02*
X29608257Y9539851D01*
X29608257Y9539851D02*
X29679685Y9539851D01*
X29679685Y9539851D02*
X29822542Y9468423D01*
X29822542Y9468423D02*
X29893971Y9325565D01*
X29893971Y9325565D02*
X29893971Y9111280D01*
X29893971Y9111280D02*
X29822542Y8968423D01*
X28965400Y7682708D02*
X28893971Y7825565D01*
X28893971Y7825565D02*
X28893971Y8111279D01*
X28893971Y8111279D02*
X28965400Y8254137D01*
X28965400Y8254137D02*
X29108257Y8325565D01*
X29108257Y8325565D02*
X29679685Y8325565D01*
X29679685Y8325565D02*
X29822542Y8254137D01*
X29822542Y8254137D02*
X29893971Y8111279D01*
X29893971Y8111279D02*
X29893971Y7825565D01*
X29893971Y7825565D02*
X29822542Y7682708D01*
X29822542Y7682708D02*
X29679685Y7611279D01*
X29679685Y7611279D02*
X29536828Y7611279D01*
X29536828Y7611279D02*
X29393971Y8325565D01*
X28893971Y6325565D02*
X30393971Y6325565D01*
X28965400Y6325565D02*
X28893971Y6468423D01*
X28893971Y6468423D02*
X28893971Y6754137D01*
X28893971Y6754137D02*
X28965400Y6896994D01*
X28965400Y6896994D02*
X29036828Y6968423D01*
X29036828Y6968423D02*
X29179685Y7039851D01*
X29179685Y7039851D02*
X29608257Y7039851D01*
X29608257Y7039851D02*
X29751114Y6968423D01*
X29751114Y6968423D02*
X29822542Y6896994D01*
X29822542Y6896994D02*
X29893971Y6754137D01*
X29893971Y6754137D02*
X29893971Y6468423D01*
X29893971Y6468423D02*
X29822542Y6325565D01*
X33993971Y12825565D02*
X33993971Y12539851D01*
X33993971Y12539851D02*
X33922542Y12396994D01*
X33922542Y12396994D02*
X33779685Y12254137D01*
X33779685Y12254137D02*
X33493971Y12182708D01*
X33493971Y12182708D02*
X32993971Y12182708D01*
X32993971Y12182708D02*
X32708257Y12254137D01*
X32708257Y12254137D02*
X32565400Y12396994D01*
X32565400Y12396994D02*
X32493971Y12539851D01*
X32493971Y12539851D02*
X32493971Y12825565D01*
X32493971Y12825565D02*
X32565400Y12968422D01*
X32565400Y12968422D02*
X32708257Y13111280D01*
X32708257Y13111280D02*
X32993971Y13182708D01*
X32993971Y13182708D02*
X33493971Y13182708D01*
X33493971Y13182708D02*
X33779685Y13111280D01*
X33779685Y13111280D02*
X33922542Y12968422D01*
X33922542Y12968422D02*
X33993971Y12825565D01*
X33493971Y11539851D02*
X31993971Y11539851D01*
X33422542Y11539851D02*
X33493971Y11396993D01*
X33493971Y11396993D02*
X33493971Y11111279D01*
X33493971Y11111279D02*
X33422542Y10968422D01*
X33422542Y10968422D02*
X33351114Y10896993D01*
X33351114Y10896993D02*
X33208257Y10825565D01*
X33208257Y10825565D02*
X32779685Y10825565D01*
X32779685Y10825565D02*
X32636828Y10896993D01*
X32636828Y10896993D02*
X32565400Y10968422D01*
X32565400Y10968422D02*
X32493971Y11111279D01*
X32493971Y11111279D02*
X32493971Y11396993D01*
X32493971Y11396993D02*
X32565400Y11539851D01*
X32565400Y9611279D02*
X32493971Y9754136D01*
X32493971Y9754136D02*
X32493971Y10039850D01*
X32493971Y10039850D02*
X32565400Y10182708D01*
X32565400Y10182708D02*
X32708257Y10254136D01*
X32708257Y10254136D02*
X33279685Y10254136D01*
X33279685Y10254136D02*
X33422542Y10182708D01*
X33422542Y10182708D02*
X33493971Y10039850D01*
X33493971Y10039850D02*
X33493971Y9754136D01*
X33493971Y9754136D02*
X33422542Y9611279D01*
X33422542Y9611279D02*
X33279685Y9539850D01*
X33279685Y9539850D02*
X33136828Y9539850D01*
X33136828Y9539850D02*
X32993971Y10254136D01*
X33493971Y8896994D02*
X32493971Y8896994D01*
X33351114Y8896994D02*
X33422542Y8825565D01*
X33422542Y8825565D02*
X33493971Y8682708D01*
X33493971Y8682708D02*
X33493971Y8468422D01*
X33493971Y8468422D02*
X33422542Y8325565D01*
X33422542Y8325565D02*
X33279685Y8254136D01*
X33279685Y8254136D02*
X32493971Y8254136D01*
X37493971Y12825565D02*
X37493971Y12539851D01*
X37493971Y12539851D02*
X37422542Y12396994D01*
X37422542Y12396994D02*
X37279685Y12254137D01*
X37279685Y12254137D02*
X36993971Y12182708D01*
X36993971Y12182708D02*
X36493971Y12182708D01*
X36493971Y12182708D02*
X36208257Y12254137D01*
X36208257Y12254137D02*
X36065400Y12396994D01*
X36065400Y12396994D02*
X35993971Y12539851D01*
X35993971Y12539851D02*
X35993971Y12825565D01*
X35993971Y12825565D02*
X36065400Y12968422D01*
X36065400Y12968422D02*
X36208257Y13111280D01*
X36208257Y13111280D02*
X36493971Y13182708D01*
X36493971Y13182708D02*
X36993971Y13182708D01*
X36993971Y13182708D02*
X37279685Y13111280D01*
X37279685Y13111280D02*
X37422542Y12968422D01*
X37422542Y12968422D02*
X37493971Y12825565D01*
X35993971Y11539851D02*
X37493971Y11539851D01*
X36922542Y11539851D02*
X36993971Y11396993D01*
X36993971Y11396993D02*
X36993971Y11111279D01*
X36993971Y11111279D02*
X36922542Y10968422D01*
X36922542Y10968422D02*
X36851114Y10896993D01*
X36851114Y10896993D02*
X36708257Y10825565D01*
X36708257Y10825565D02*
X36279685Y10825565D01*
X36279685Y10825565D02*
X36136828Y10896993D01*
X36136828Y10896993D02*
X36065400Y10968422D01*
X36065400Y10968422D02*
X35993971Y11111279D01*
X35993971Y11111279D02*
X35993971Y11396993D01*
X35993971Y11396993D02*
X36065400Y11539851D01*
X36065400Y10254136D02*
X35993971Y10111279D01*
X35993971Y10111279D02*
X35993971Y9825565D01*
X35993971Y9825565D02*
X36065400Y9682708D01*
X36065400Y9682708D02*
X36208257Y9611279D01*
X36208257Y9611279D02*
X36279685Y9611279D01*
X36279685Y9611279D02*
X36422542Y9682708D01*
X36422542Y9682708D02*
X36493971Y9825565D01*
X36493971Y9825565D02*
X36493971Y10039850D01*
X36493971Y10039850D02*
X36565400Y10182708D01*
X36565400Y10182708D02*
X36708257Y10254136D01*
X36708257Y10254136D02*
X36779685Y10254136D01*
X36779685Y10254136D02*
X36922542Y10182708D01*
X36922542Y10182708D02*
X36993971Y10039850D01*
X36993971Y10039850D02*
X36993971Y9825565D01*
X36993971Y9825565D02*
X36922542Y9682708D01*
X36993971Y9182707D02*
X36993971Y8611279D01*
X37493971Y8968422D02*
X36208257Y8968422D01*
X36208257Y8968422D02*
X36065400Y8896993D01*
X36065400Y8896993D02*
X35993971Y8754136D01*
X35993971Y8754136D02*
X35993971Y8611279D01*
X35993971Y8111279D02*
X36993971Y8111279D01*
X36708257Y8111279D02*
X36851114Y8039850D01*
X36851114Y8039850D02*
X36922542Y7968421D01*
X36922542Y7968421D02*
X36993971Y7825564D01*
X36993971Y7825564D02*
X36993971Y7682707D01*
X36993971Y6539850D02*
X35993971Y6539850D01*
X36993971Y7182708D02*
X36208257Y7182708D01*
X36208257Y7182708D02*
X36065400Y7111279D01*
X36065400Y7111279D02*
X35993971Y6968422D01*
X35993971Y6968422D02*
X35993971Y6754136D01*
X35993971Y6754136D02*
X36065400Y6611279D01*
X36065400Y6611279D02*
X36136828Y6539850D01*
X36065400Y5182707D02*
X35993971Y5325565D01*
X35993971Y5325565D02*
X35993971Y5611279D01*
X35993971Y5611279D02*
X36065400Y5754136D01*
X36065400Y5754136D02*
X36136828Y5825565D01*
X36136828Y5825565D02*
X36279685Y5896993D01*
X36279685Y5896993D02*
X36708257Y5896993D01*
X36708257Y5896993D02*
X36851114Y5825565D01*
X36851114Y5825565D02*
X36922542Y5754136D01*
X36922542Y5754136D02*
X36993971Y5611279D01*
X36993971Y5611279D02*
X36993971Y5325565D01*
X36993971Y5325565D02*
X36922542Y5182707D01*
X36993971Y4754136D02*
X36993971Y4182708D01*
X37493971Y4539851D02*
X36208257Y4539851D01*
X36208257Y4539851D02*
X36065400Y4468422D01*
X36065400Y4468422D02*
X35993971Y4325565D01*
X35993971Y4325565D02*
X35993971Y4182708D01*
X35993971Y3682708D02*
X36993971Y3682708D01*
X37493971Y3682708D02*
X37422542Y3754136D01*
X37422542Y3754136D02*
X37351114Y3682708D01*
X37351114Y3682708D02*
X37422542Y3611279D01*
X37422542Y3611279D02*
X37493971Y3682708D01*
X37493971Y3682708D02*
X37351114Y3682708D01*
X35993971Y2754136D02*
X36065400Y2896993D01*
X36065400Y2896993D02*
X36136828Y2968422D01*
X36136828Y2968422D02*
X36279685Y3039850D01*
X36279685Y3039850D02*
X36708257Y3039850D01*
X36708257Y3039850D02*
X36851114Y2968422D01*
X36851114Y2968422D02*
X36922542Y2896993D01*
X36922542Y2896993D02*
X36993971Y2754136D01*
X36993971Y2754136D02*
X36993971Y2539850D01*
X36993971Y2539850D02*
X36922542Y2396993D01*
X36922542Y2396993D02*
X36851114Y2325564D01*
X36851114Y2325564D02*
X36708257Y2254136D01*
X36708257Y2254136D02*
X36279685Y2254136D01*
X36279685Y2254136D02*
X36136828Y2325564D01*
X36136828Y2325564D02*
X36065400Y2396993D01*
X36065400Y2396993D02*
X35993971Y2539850D01*
X35993971Y2539850D02*
X35993971Y2754136D01*
X36993971Y1611279D02*
X35993971Y1611279D01*
X36851114Y1611279D02*
X36922542Y1539850D01*
X36922542Y1539850D02*
X36993971Y1396993D01*
X36993971Y1396993D02*
X36993971Y1182707D01*
X36993971Y1182707D02*
X36922542Y1039850D01*
X36922542Y1039850D02*
X36779685Y968421D01*
X36779685Y968421D02*
X35993971Y968421D01*
D11*
X113150187Y2453715D02*
X113221615Y2525143D01*
X113221615Y2525143D02*
X113364473Y2596572D01*
X113364473Y2596572D02*
X113721615Y2596572D01*
X113721615Y2596572D02*
X113864473Y2525143D01*
X113864473Y2525143D02*
X113935901Y2453715D01*
X113935901Y2453715D02*
X114007330Y2310858D01*
X114007330Y2310858D02*
X114007330Y2168000D01*
X114007330Y2168000D02*
X113935901Y1953715D01*
X113935901Y1953715D02*
X113078758Y1096572D01*
X113078758Y1096572D02*
X114007330Y1096572D01*
X114935901Y2596572D02*
X115078758Y2596572D01*
X115078758Y2596572D02*
X115221615Y2525143D01*
X115221615Y2525143D02*
X115293044Y2453715D01*
X115293044Y2453715D02*
X115364472Y2310858D01*
X115364472Y2310858D02*
X115435901Y2025143D01*
X115435901Y2025143D02*
X115435901Y1668000D01*
X115435901Y1668000D02*
X115364472Y1382286D01*
X115364472Y1382286D02*
X115293044Y1239429D01*
X115293044Y1239429D02*
X115221615Y1168000D01*
X115221615Y1168000D02*
X115078758Y1096572D01*
X115078758Y1096572D02*
X114935901Y1096572D01*
X114935901Y1096572D02*
X114793044Y1168000D01*
X114793044Y1168000D02*
X114721615Y1239429D01*
X114721615Y1239429D02*
X114650186Y1382286D01*
X114650186Y1382286D02*
X114578758Y1668000D01*
X114578758Y1668000D02*
X114578758Y2025143D01*
X114578758Y2025143D02*
X114650186Y2310858D01*
X114650186Y2310858D02*
X114721615Y2453715D01*
X114721615Y2453715D02*
X114793044Y2525143D01*
X114793044Y2525143D02*
X114935901Y2596572D01*
X116364472Y2596572D02*
X116507329Y2596572D01*
X116507329Y2596572D02*
X116650186Y2525143D01*
X116650186Y2525143D02*
X116721615Y2453715D01*
X116721615Y2453715D02*
X116793043Y2310858D01*
X116793043Y2310858D02*
X116864472Y2025143D01*
X116864472Y2025143D02*
X116864472Y1668000D01*
X116864472Y1668000D02*
X116793043Y1382286D01*
X116793043Y1382286D02*
X116721615Y1239429D01*
X116721615Y1239429D02*
X116650186Y1168000D01*
X116650186Y1168000D02*
X116507329Y1096572D01*
X116507329Y1096572D02*
X116364472Y1096572D01*
X116364472Y1096572D02*
X116221615Y1168000D01*
X116221615Y1168000D02*
X116150186Y1239429D01*
X116150186Y1239429D02*
X116078757Y1382286D01*
X116078757Y1382286D02*
X116007329Y1668000D01*
X116007329Y1668000D02*
X116007329Y2025143D01*
X116007329Y2025143D02*
X116078757Y2310858D01*
X116078757Y2310858D02*
X116150186Y2453715D01*
X116150186Y2453715D02*
X116221615Y2525143D01*
X116221615Y2525143D02*
X116364472Y2596572D01*
X117435900Y2453715D02*
X117507328Y2525143D01*
X117507328Y2525143D02*
X117650186Y2596572D01*
X117650186Y2596572D02*
X118007328Y2596572D01*
X118007328Y2596572D02*
X118150186Y2525143D01*
X118150186Y2525143D02*
X118221614Y2453715D01*
X118221614Y2453715D02*
X118293043Y2310858D01*
X118293043Y2310858D02*
X118293043Y2168000D01*
X118293043Y2168000D02*
X118221614Y1953715D01*
X118221614Y1953715D02*
X117364471Y1096572D01*
X117364471Y1096572D02*
X118293043Y1096572D01*
X119150185Y1953715D02*
X119007328Y2025143D01*
X119007328Y2025143D02*
X118935899Y2096572D01*
X118935899Y2096572D02*
X118864471Y2239429D01*
X118864471Y2239429D02*
X118864471Y2310858D01*
X118864471Y2310858D02*
X118935899Y2453715D01*
X118935899Y2453715D02*
X119007328Y2525143D01*
X119007328Y2525143D02*
X119150185Y2596572D01*
X119150185Y2596572D02*
X119435899Y2596572D01*
X119435899Y2596572D02*
X119578757Y2525143D01*
X119578757Y2525143D02*
X119650185Y2453715D01*
X119650185Y2453715D02*
X119721614Y2310858D01*
X119721614Y2310858D02*
X119721614Y2239429D01*
X119721614Y2239429D02*
X119650185Y2096572D01*
X119650185Y2096572D02*
X119578757Y2025143D01*
X119578757Y2025143D02*
X119435899Y1953715D01*
X119435899Y1953715D02*
X119150185Y1953715D01*
X119150185Y1953715D02*
X119007328Y1882286D01*
X119007328Y1882286D02*
X118935899Y1810858D01*
X118935899Y1810858D02*
X118864471Y1668000D01*
X118864471Y1668000D02*
X118864471Y1382286D01*
X118864471Y1382286D02*
X118935899Y1239429D01*
X118935899Y1239429D02*
X119007328Y1168000D01*
X119007328Y1168000D02*
X119150185Y1096572D01*
X119150185Y1096572D02*
X119435899Y1096572D01*
X119435899Y1096572D02*
X119578757Y1168000D01*
X119578757Y1168000D02*
X119650185Y1239429D01*
X119650185Y1239429D02*
X119721614Y1382286D01*
X119721614Y1382286D02*
X119721614Y1668000D01*
X119721614Y1668000D02*
X119650185Y1810858D01*
X119650185Y1810858D02*
X119578757Y1882286D01*
X119578757Y1882286D02*
X119435899Y1953715D01*
X120650185Y2596572D02*
X120793042Y2596572D01*
X120793042Y2596572D02*
X120935899Y2525143D01*
X120935899Y2525143D02*
X121007328Y2453715D01*
X121007328Y2453715D02*
X121078756Y2310858D01*
X121078756Y2310858D02*
X121150185Y2025143D01*
X121150185Y2025143D02*
X121150185Y1668000D01*
X121150185Y1668000D02*
X121078756Y1382286D01*
X121078756Y1382286D02*
X121007328Y1239429D01*
X121007328Y1239429D02*
X120935899Y1168000D01*
X120935899Y1168000D02*
X120793042Y1096572D01*
X120793042Y1096572D02*
X120650185Y1096572D01*
X120650185Y1096572D02*
X120507328Y1168000D01*
X120507328Y1168000D02*
X120435899Y1239429D01*
X120435899Y1239429D02*
X120364470Y1382286D01*
X120364470Y1382286D02*
X120293042Y1668000D01*
X120293042Y1668000D02*
X120293042Y2025143D01*
X120293042Y2025143D02*
X120364470Y2310858D01*
X120364470Y2310858D02*
X120435899Y2453715D01*
X120435899Y2453715D02*
X120507328Y2525143D01*
X120507328Y2525143D02*
X120650185Y2596572D01*
X121793041Y1096572D02*
X121793041Y2096572D01*
X121793041Y1810858D02*
X121864470Y1953715D01*
X121864470Y1953715D02*
X121935899Y2025143D01*
X121935899Y2025143D02*
X122078756Y2096572D01*
X122078756Y2096572D02*
X122221613Y2096572D01*
X122650184Y1525143D02*
X123364470Y1525143D01*
X122507327Y1096572D02*
X123007327Y2596572D01*
X123007327Y2596572D02*
X123507327Y1096572D01*
D12*
X92514917Y4449381D02*
X91942498Y4550396D01*
X92110856Y4045320D02*
X91403750Y4752427D01*
X91403750Y4752427D02*
X91673124Y5021801D01*
X91673124Y5021801D02*
X91774139Y5055473D01*
X91774139Y5055473D02*
X91841482Y5055473D01*
X91841482Y5055473D02*
X91942498Y5021801D01*
X91942498Y5021801D02*
X92043513Y4920786D01*
X92043513Y4920786D02*
X92077185Y4819770D01*
X92077185Y4819770D02*
X92077185Y4752427D01*
X92077185Y4752427D02*
X92043513Y4651412D01*
X92043513Y4651412D02*
X91774139Y4382038D01*
X92043513Y5392190D02*
X92514917Y5863595D01*
X92514917Y5863595D02*
X92918978Y4853442D01*
X76059580Y15033334D02*
X76107200Y14985715D01*
X76107200Y14985715D02*
X76154819Y14842858D01*
X76154819Y14842858D02*
X76154819Y14747620D01*
X76154819Y14747620D02*
X76107200Y14604763D01*
X76107200Y14604763D02*
X76011961Y14509525D01*
X76011961Y14509525D02*
X75916723Y14461906D01*
X75916723Y14461906D02*
X75726247Y14414287D01*
X75726247Y14414287D02*
X75583390Y14414287D01*
X75583390Y14414287D02*
X75392914Y14461906D01*
X75392914Y14461906D02*
X75297676Y14509525D01*
X75297676Y14509525D02*
X75202438Y14604763D01*
X75202438Y14604763D02*
X75154819Y14747620D01*
X75154819Y14747620D02*
X75154819Y14842858D01*
X75154819Y14842858D02*
X75202438Y14985715D01*
X75202438Y14985715D02*
X75250057Y15033334D01*
X76154819Y15985715D02*
X76154819Y15414287D01*
X76154819Y15700001D02*
X75154819Y15700001D01*
X75154819Y15700001D02*
X75297676Y15604763D01*
X75297676Y15604763D02*
X75392914Y15509525D01*
X75392914Y15509525D02*
X75440533Y15414287D01*
X8754819Y19366667D02*
X9469104Y19366667D01*
X9469104Y19366667D02*
X9611961Y19319048D01*
X9611961Y19319048D02*
X9707200Y19223810D01*
X9707200Y19223810D02*
X9754819Y19080953D01*
X9754819Y19080953D02*
X9754819Y18985715D01*
X9754819Y20366667D02*
X9754819Y19795239D01*
X9754819Y20080953D02*
X8754819Y20080953D01*
X8754819Y20080953D02*
X8897676Y19985715D01*
X8897676Y19985715D02*
X8992914Y19890477D01*
X8992914Y19890477D02*
X9040533Y19795239D01*
X68154819Y15433334D02*
X67678628Y15100001D01*
X68154819Y14861906D02*
X67154819Y14861906D01*
X67154819Y14861906D02*
X67154819Y15242858D01*
X67154819Y15242858D02*
X67202438Y15338096D01*
X67202438Y15338096D02*
X67250057Y15385715D01*
X67250057Y15385715D02*
X67345295Y15433334D01*
X67345295Y15433334D02*
X67488152Y15433334D01*
X67488152Y15433334D02*
X67583390Y15385715D01*
X67583390Y15385715D02*
X67631009Y15338096D01*
X67631009Y15338096D02*
X67678628Y15242858D01*
X67678628Y15242858D02*
X67678628Y14861906D01*
X67154819Y16290477D02*
X67154819Y16100001D01*
X67154819Y16100001D02*
X67202438Y16004763D01*
X67202438Y16004763D02*
X67250057Y15957144D01*
X67250057Y15957144D02*
X67392914Y15861906D01*
X67392914Y15861906D02*
X67583390Y15814287D01*
X67583390Y15814287D02*
X67964342Y15814287D01*
X67964342Y15814287D02*
X68059580Y15861906D01*
X68059580Y15861906D02*
X68107200Y15909525D01*
X68107200Y15909525D02*
X68154819Y16004763D01*
X68154819Y16004763D02*
X68154819Y16195239D01*
X68154819Y16195239D02*
X68107200Y16290477D01*
X68107200Y16290477D02*
X68059580Y16338096D01*
X68059580Y16338096D02*
X67964342Y16385715D01*
X67964342Y16385715D02*
X67726247Y16385715D01*
X67726247Y16385715D02*
X67631009Y16338096D01*
X67631009Y16338096D02*
X67583390Y16290477D01*
X67583390Y16290477D02*
X67535771Y16195239D01*
X67535771Y16195239D02*
X67535771Y16004763D01*
X67535771Y16004763D02*
X67583390Y15909525D01*
X67583390Y15909525D02*
X67631009Y15861906D01*
X67631009Y15861906D02*
X67726247Y15814287D01*
X66554819Y15433334D02*
X66078628Y15100001D01*
X66554819Y14861906D02*
X65554819Y14861906D01*
X65554819Y14861906D02*
X65554819Y15242858D01*
X65554819Y15242858D02*
X65602438Y15338096D01*
X65602438Y15338096D02*
X65650057Y15385715D01*
X65650057Y15385715D02*
X65745295Y15433334D01*
X65745295Y15433334D02*
X65888152Y15433334D01*
X65888152Y15433334D02*
X65983390Y15385715D01*
X65983390Y15385715D02*
X66031009Y15338096D01*
X66031009Y15338096D02*
X66078628Y15242858D01*
X66078628Y15242858D02*
X66078628Y14861906D01*
X65554819Y16338096D02*
X65554819Y15861906D01*
X65554819Y15861906D02*
X66031009Y15814287D01*
X66031009Y15814287D02*
X65983390Y15861906D01*
X65983390Y15861906D02*
X65935771Y15957144D01*
X65935771Y15957144D02*
X65935771Y16195239D01*
X65935771Y16195239D02*
X65983390Y16290477D01*
X65983390Y16290477D02*
X66031009Y16338096D01*
X66031009Y16338096D02*
X66126247Y16385715D01*
X66126247Y16385715D02*
X66364342Y16385715D01*
X66364342Y16385715D02*
X66459580Y16338096D01*
X66459580Y16338096D02*
X66507200Y16290477D01*
X66507200Y16290477D02*
X66554819Y16195239D01*
X66554819Y16195239D02*
X66554819Y15957144D01*
X66554819Y15957144D02*
X66507200Y15861906D01*
X66507200Y15861906D02*
X66459580Y15814287D01*
X77854819Y15433334D02*
X77378628Y15100001D01*
X77854819Y14861906D02*
X76854819Y14861906D01*
X76854819Y14861906D02*
X76854819Y15242858D01*
X76854819Y15242858D02*
X76902438Y15338096D01*
X76902438Y15338096D02*
X76950057Y15385715D01*
X76950057Y15385715D02*
X77045295Y15433334D01*
X77045295Y15433334D02*
X77188152Y15433334D01*
X77188152Y15433334D02*
X77283390Y15385715D01*
X77283390Y15385715D02*
X77331009Y15338096D01*
X77331009Y15338096D02*
X77378628Y15242858D01*
X77378628Y15242858D02*
X77378628Y14861906D01*
X77188152Y16290477D02*
X77854819Y16290477D01*
X76807200Y16052382D02*
X77521485Y15814287D01*
X77521485Y15814287D02*
X77521485Y16433334D01*
X74454819Y15433334D02*
X73978628Y15100001D01*
X74454819Y14861906D02*
X73454819Y14861906D01*
X73454819Y14861906D02*
X73454819Y15242858D01*
X73454819Y15242858D02*
X73502438Y15338096D01*
X73502438Y15338096D02*
X73550057Y15385715D01*
X73550057Y15385715D02*
X73645295Y15433334D01*
X73645295Y15433334D02*
X73788152Y15433334D01*
X73788152Y15433334D02*
X73883390Y15385715D01*
X73883390Y15385715D02*
X73931009Y15338096D01*
X73931009Y15338096D02*
X73978628Y15242858D01*
X73978628Y15242858D02*
X73978628Y14861906D01*
X73454819Y15766668D02*
X73454819Y16385715D01*
X73454819Y16385715D02*
X73835771Y16052382D01*
X73835771Y16052382D02*
X73835771Y16195239D01*
X73835771Y16195239D02*
X73883390Y16290477D01*
X73883390Y16290477D02*
X73931009Y16338096D01*
X73931009Y16338096D02*
X74026247Y16385715D01*
X74026247Y16385715D02*
X74264342Y16385715D01*
X74264342Y16385715D02*
X74359580Y16338096D01*
X74359580Y16338096D02*
X74407200Y16290477D01*
X74407200Y16290477D02*
X74454819Y16195239D01*
X74454819Y16195239D02*
X74454819Y15909525D01*
X74454819Y15909525D02*
X74407200Y15814287D01*
X74407200Y15814287D02*
X74359580Y15766668D01*
X72754819Y15433334D02*
X72278628Y15100001D01*
X72754819Y14861906D02*
X71754819Y14861906D01*
X71754819Y14861906D02*
X71754819Y15242858D01*
X71754819Y15242858D02*
X71802438Y15338096D01*
X71802438Y15338096D02*
X71850057Y15385715D01*
X71850057Y15385715D02*
X71945295Y15433334D01*
X71945295Y15433334D02*
X72088152Y15433334D01*
X72088152Y15433334D02*
X72183390Y15385715D01*
X72183390Y15385715D02*
X72231009Y15338096D01*
X72231009Y15338096D02*
X72278628Y15242858D01*
X72278628Y15242858D02*
X72278628Y14861906D01*
X71850057Y15814287D02*
X71802438Y15861906D01*
X71802438Y15861906D02*
X71754819Y15957144D01*
X71754819Y15957144D02*
X71754819Y16195239D01*
X71754819Y16195239D02*
X71802438Y16290477D01*
X71802438Y16290477D02*
X71850057Y16338096D01*
X71850057Y16338096D02*
X71945295Y16385715D01*
X71945295Y16385715D02*
X72040533Y16385715D01*
X72040533Y16385715D02*
X72183390Y16338096D01*
X72183390Y16338096D02*
X72754819Y15766668D01*
X72754819Y15766668D02*
X72754819Y16385715D01*
X71154819Y15433334D02*
X70678628Y15100001D01*
X71154819Y14861906D02*
X70154819Y14861906D01*
X70154819Y14861906D02*
X70154819Y15242858D01*
X70154819Y15242858D02*
X70202438Y15338096D01*
X70202438Y15338096D02*
X70250057Y15385715D01*
X70250057Y15385715D02*
X70345295Y15433334D01*
X70345295Y15433334D02*
X70488152Y15433334D01*
X70488152Y15433334D02*
X70583390Y15385715D01*
X70583390Y15385715D02*
X70631009Y15338096D01*
X70631009Y15338096D02*
X70678628Y15242858D01*
X70678628Y15242858D02*
X70678628Y14861906D01*
X71154819Y16385715D02*
X71154819Y15814287D01*
X71154819Y16100001D02*
X70154819Y16100001D01*
X70154819Y16100001D02*
X70297676Y16004763D01*
X70297676Y16004763D02*
X70392914Y15909525D01*
X70392914Y15909525D02*
X70440533Y15814287D01*
X68804761Y23349943D02*
X68709523Y23397562D01*
X68709523Y23397562D02*
X68614285Y23492800D01*
X68614285Y23492800D02*
X68471428Y23635658D01*
X68471428Y23635658D02*
X68376190Y23683277D01*
X68376190Y23683277D02*
X68280952Y23683277D01*
X68328571Y23445181D02*
X68233333Y23492800D01*
X68233333Y23492800D02*
X68138095Y23588039D01*
X68138095Y23588039D02*
X68090476Y23778515D01*
X68090476Y23778515D02*
X68090476Y24111848D01*
X68090476Y24111848D02*
X68138095Y24302324D01*
X68138095Y24302324D02*
X68233333Y24397562D01*
X68233333Y24397562D02*
X68328571Y24445181D01*
X68328571Y24445181D02*
X68519047Y24445181D01*
X68519047Y24445181D02*
X68614285Y24397562D01*
X68614285Y24397562D02*
X68709523Y24302324D01*
X68709523Y24302324D02*
X68757142Y24111848D01*
X68757142Y24111848D02*
X68757142Y23778515D01*
X68757142Y23778515D02*
X68709523Y23588039D01*
X68709523Y23588039D02*
X68614285Y23492800D01*
X68614285Y23492800D02*
X68519047Y23445181D01*
X68519047Y23445181D02*
X68328571Y23445181D01*
X69614285Y24111848D02*
X69614285Y23445181D01*
X69376190Y24492800D02*
X69138095Y23778515D01*
X69138095Y23778515D02*
X69757142Y23778515D01*
X84204761Y4849943D02*
X84109523Y4897562D01*
X84109523Y4897562D02*
X84014285Y4992800D01*
X84014285Y4992800D02*
X83871428Y5135658D01*
X83871428Y5135658D02*
X83776190Y5183277D01*
X83776190Y5183277D02*
X83680952Y5183277D01*
X83728571Y4945181D02*
X83633333Y4992800D01*
X83633333Y4992800D02*
X83538095Y5088039D01*
X83538095Y5088039D02*
X83490476Y5278515D01*
X83490476Y5278515D02*
X83490476Y5611848D01*
X83490476Y5611848D02*
X83538095Y5802324D01*
X83538095Y5802324D02*
X83633333Y5897562D01*
X83633333Y5897562D02*
X83728571Y5945181D01*
X83728571Y5945181D02*
X83919047Y5945181D01*
X83919047Y5945181D02*
X84014285Y5897562D01*
X84014285Y5897562D02*
X84109523Y5802324D01*
X84109523Y5802324D02*
X84157142Y5611848D01*
X84157142Y5611848D02*
X84157142Y5278515D01*
X84157142Y5278515D02*
X84109523Y5088039D01*
X84109523Y5088039D02*
X84014285Y4992800D01*
X84014285Y4992800D02*
X83919047Y4945181D01*
X83919047Y4945181D02*
X83728571Y4945181D01*
X84538095Y5849943D02*
X84585714Y5897562D01*
X84585714Y5897562D02*
X84680952Y5945181D01*
X84680952Y5945181D02*
X84919047Y5945181D01*
X84919047Y5945181D02*
X85014285Y5897562D01*
X85014285Y5897562D02*
X85061904Y5849943D01*
X85061904Y5849943D02*
X85109523Y5754705D01*
X85109523Y5754705D02*
X85109523Y5659467D01*
X85109523Y5659467D02*
X85061904Y5516610D01*
X85061904Y5516610D02*
X84490476Y4945181D01*
X84490476Y4945181D02*
X85109523Y4945181D01*
X73004761Y23349943D02*
X72909523Y23397562D01*
X72909523Y23397562D02*
X72814285Y23492800D01*
X72814285Y23492800D02*
X72671428Y23635658D01*
X72671428Y23635658D02*
X72576190Y23683277D01*
X72576190Y23683277D02*
X72480952Y23683277D01*
X72528571Y23445181D02*
X72433333Y23492800D01*
X72433333Y23492800D02*
X72338095Y23588039D01*
X72338095Y23588039D02*
X72290476Y23778515D01*
X72290476Y23778515D02*
X72290476Y24111848D01*
X72290476Y24111848D02*
X72338095Y24302324D01*
X72338095Y24302324D02*
X72433333Y24397562D01*
X72433333Y24397562D02*
X72528571Y24445181D01*
X72528571Y24445181D02*
X72719047Y24445181D01*
X72719047Y24445181D02*
X72814285Y24397562D01*
X72814285Y24397562D02*
X72909523Y24302324D01*
X72909523Y24302324D02*
X72957142Y24111848D01*
X72957142Y24111848D02*
X72957142Y23778515D01*
X72957142Y23778515D02*
X72909523Y23588039D01*
X72909523Y23588039D02*
X72814285Y23492800D01*
X72814285Y23492800D02*
X72719047Y23445181D01*
X72719047Y23445181D02*
X72528571Y23445181D01*
X73909523Y23445181D02*
X73338095Y23445181D01*
X73623809Y23445181D02*
X73623809Y24445181D01*
X73623809Y24445181D02*
X73528571Y24302324D01*
X73528571Y24302324D02*
X73433333Y24207086D01*
X73433333Y24207086D02*
X73338095Y24159467D01*
X81338095Y20345181D02*
X81338095Y19535658D01*
X81338095Y19535658D02*
X81385714Y19440420D01*
X81385714Y19440420D02*
X81433333Y19392800D01*
X81433333Y19392800D02*
X81528571Y19345181D01*
X81528571Y19345181D02*
X81719047Y19345181D01*
X81719047Y19345181D02*
X81814285Y19392800D01*
X81814285Y19392800D02*
X81861904Y19440420D01*
X81861904Y19440420D02*
X81909523Y19535658D01*
X81909523Y19535658D02*
X81909523Y20345181D01*
X82909523Y19345181D02*
X82338095Y19345181D01*
X82623809Y19345181D02*
X82623809Y20345181D01*
X82623809Y20345181D02*
X82528571Y20202324D01*
X82528571Y20202324D02*
X82433333Y20107086D01*
X82433333Y20107086D02*
X82338095Y20059467D01*
X87233333Y21140420D02*
X87185714Y21092800D01*
X87185714Y21092800D02*
X87042857Y21045181D01*
X87042857Y21045181D02*
X86947619Y21045181D01*
X86947619Y21045181D02*
X86804762Y21092800D01*
X86804762Y21092800D02*
X86709524Y21188039D01*
X86709524Y21188039D02*
X86661905Y21283277D01*
X86661905Y21283277D02*
X86614286Y21473753D01*
X86614286Y21473753D02*
X86614286Y21616610D01*
X86614286Y21616610D02*
X86661905Y21807086D01*
X86661905Y21807086D02*
X86709524Y21902324D01*
X86709524Y21902324D02*
X86804762Y21997562D01*
X86804762Y21997562D02*
X86947619Y22045181D01*
X86947619Y22045181D02*
X87042857Y22045181D01*
X87042857Y22045181D02*
X87185714Y21997562D01*
X87185714Y21997562D02*
X87233333Y21949943D01*
X87614286Y21949943D02*
X87661905Y21997562D01*
X87661905Y21997562D02*
X87757143Y22045181D01*
X87757143Y22045181D02*
X87995238Y22045181D01*
X87995238Y22045181D02*
X88090476Y21997562D01*
X88090476Y21997562D02*
X88138095Y21949943D01*
X88138095Y21949943D02*
X88185714Y21854705D01*
X88185714Y21854705D02*
X88185714Y21759467D01*
X88185714Y21759467D02*
X88138095Y21616610D01*
X88138095Y21616610D02*
X87566667Y21045181D01*
X87566667Y21045181D02*
X88185714Y21045181D01*
D13*
X96656450Y3683609D02*
X96656450Y3050302D01*
X96656450Y3050302D02*
X96693704Y2975796D01*
X96693704Y2975796D02*
X96730957Y2938542D01*
X96730957Y2938542D02*
X96805464Y2901289D01*
X96805464Y2901289D02*
X96954477Y2901289D01*
X96954477Y2901289D02*
X97028984Y2938542D01*
X97028984Y2938542D02*
X97066237Y2975796D01*
X97066237Y2975796D02*
X97103490Y3050302D01*
X97103490Y3050302D02*
X97103490Y3683609D01*
X97438770Y3609102D02*
X97476023Y3646356D01*
X97476023Y3646356D02*
X97550530Y3683609D01*
X97550530Y3683609D02*
X97736797Y3683609D01*
X97736797Y3683609D02*
X97811303Y3646356D01*
X97811303Y3646356D02*
X97848557Y3609102D01*
X97848557Y3609102D02*
X97885810Y3534596D01*
X97885810Y3534596D02*
X97885810Y3460089D01*
X97885810Y3460089D02*
X97848557Y3348329D01*
X97848557Y3348329D02*
X97401517Y2901289D01*
X97401517Y2901289D02*
X97885810Y2901289D01*
D12*
X84233333Y21140420D02*
X84185714Y21092800D01*
X84185714Y21092800D02*
X84042857Y21045181D01*
X84042857Y21045181D02*
X83947619Y21045181D01*
X83947619Y21045181D02*
X83804762Y21092800D01*
X83804762Y21092800D02*
X83709524Y21188039D01*
X83709524Y21188039D02*
X83661905Y21283277D01*
X83661905Y21283277D02*
X83614286Y21473753D01*
X83614286Y21473753D02*
X83614286Y21616610D01*
X83614286Y21616610D02*
X83661905Y21807086D01*
X83661905Y21807086D02*
X83709524Y21902324D01*
X83709524Y21902324D02*
X83804762Y21997562D01*
X83804762Y21997562D02*
X83947619Y22045181D01*
X83947619Y22045181D02*
X84042857Y22045181D01*
X84042857Y22045181D02*
X84185714Y21997562D01*
X84185714Y21997562D02*
X84233333Y21949943D01*
X84566667Y22045181D02*
X85185714Y22045181D01*
X85185714Y22045181D02*
X84852381Y21664229D01*
X84852381Y21664229D02*
X84995238Y21664229D01*
X84995238Y21664229D02*
X85090476Y21616610D01*
X85090476Y21616610D02*
X85138095Y21568991D01*
X85138095Y21568991D02*
X85185714Y21473753D01*
X85185714Y21473753D02*
X85185714Y21235658D01*
X85185714Y21235658D02*
X85138095Y21140420D01*
X85138095Y21140420D02*
X85090476Y21092800D01*
X85090476Y21092800D02*
X84995238Y21045181D01*
X84995238Y21045181D02*
X84709524Y21045181D01*
X84709524Y21045181D02*
X84614286Y21092800D01*
X84614286Y21092800D02*
X84566667Y21140420D01*
X69654819Y14861906D02*
X68654819Y14861906D01*
X68654819Y14861906D02*
X68654819Y15100001D01*
X68654819Y15100001D02*
X68702438Y15242858D01*
X68702438Y15242858D02*
X68797676Y15338096D01*
X68797676Y15338096D02*
X68892914Y15385715D01*
X68892914Y15385715D02*
X69083390Y15433334D01*
X69083390Y15433334D02*
X69226247Y15433334D01*
X69226247Y15433334D02*
X69416723Y15385715D01*
X69416723Y15385715D02*
X69511961Y15338096D01*
X69511961Y15338096D02*
X69607200Y15242858D01*
X69607200Y15242858D02*
X69654819Y15100001D01*
X69654819Y15100001D02*
X69654819Y14861906D01*
X69654819Y16385715D02*
X69654819Y15814287D01*
X69654819Y16100001D02*
X68654819Y16100001D01*
X68654819Y16100001D02*
X68797676Y16004763D01*
X68797676Y16004763D02*
X68892914Y15909525D01*
X68892914Y15909525D02*
X68940533Y15814287D01*
X59554819Y18538096D02*
X60364342Y18538096D01*
X60364342Y18538096D02*
X60459580Y18585715D01*
X60459580Y18585715D02*
X60507200Y18633334D01*
X60507200Y18633334D02*
X60554819Y18728572D01*
X60554819Y18728572D02*
X60554819Y18919048D01*
X60554819Y18919048D02*
X60507200Y19014286D01*
X60507200Y19014286D02*
X60459580Y19061905D01*
X60459580Y19061905D02*
X60364342Y19109524D01*
X60364342Y19109524D02*
X59554819Y19109524D01*
X59554819Y19490477D02*
X59554819Y20109524D01*
X59554819Y20109524D02*
X59935771Y19776191D01*
X59935771Y19776191D02*
X59935771Y19919048D01*
X59935771Y19919048D02*
X59983390Y20014286D01*
X59983390Y20014286D02*
X60031009Y20061905D01*
X60031009Y20061905D02*
X60126247Y20109524D01*
X60126247Y20109524D02*
X60364342Y20109524D01*
X60364342Y20109524D02*
X60459580Y20061905D01*
X60459580Y20061905D02*
X60507200Y20014286D01*
X60507200Y20014286D02*
X60554819Y19919048D01*
X60554819Y19919048D02*
X60554819Y19633334D01*
X60554819Y19633334D02*
X60507200Y19538096D01*
X60507200Y19538096D02*
X60459580Y19490477D01*
D14*
%TO.C,R7*%
X91837230Y5698303D02*
X91501697Y5362770D01*
X91098303Y6437230D02*
X90762770Y6101697D01*
%TO.C,C1*%
X76210000Y18440580D02*
X76210000Y18159420D01*
X75190000Y18440580D02*
X75190000Y18159420D01*
%TO.C,J1*%
X10300000Y22950000D02*
X45700000Y22950000D01*
X10300000Y15050000D02*
X10300000Y22950000D01*
X11100000Y15550000D02*
X11100000Y15050000D01*
X11100000Y15050000D02*
X10300000Y15050000D01*
X11900000Y15050000D02*
X12500000Y15050000D01*
X12200000Y15350000D02*
X11900000Y15050000D01*
X12500000Y15050000D02*
X12200000Y15350000D01*
X13400000Y15550000D02*
X11100000Y15550000D01*
X13400000Y15050000D02*
X13400000Y15550000D01*
X14600000Y15550000D02*
X14600000Y15050000D01*
X14600000Y15050000D02*
X13400000Y15050000D01*
X16900000Y15550000D02*
X14600000Y15550000D01*
X16900000Y15050000D02*
X16900000Y15550000D01*
X18100000Y15550000D02*
X18100000Y15050000D01*
X18100000Y15050000D02*
X16900000Y15050000D01*
X20400000Y15550000D02*
X18100000Y15550000D01*
X20400000Y15050000D02*
X20400000Y15550000D01*
X21600000Y15550000D02*
X21600000Y15050000D01*
X21600000Y15050000D02*
X20400000Y15050000D01*
X23900000Y15550000D02*
X21600000Y15550000D01*
X23900000Y15050000D02*
X23900000Y15550000D01*
X25100000Y15550000D02*
X25100000Y15050000D01*
X25100000Y15050000D02*
X23900000Y15050000D01*
X27400000Y15550000D02*
X25100000Y15550000D01*
X27400000Y15050000D02*
X27400000Y15550000D01*
X28600000Y15550000D02*
X28600000Y15050000D01*
X28600000Y15050000D02*
X27400000Y15050000D01*
X30900000Y15550000D02*
X28600000Y15550000D01*
X30900000Y15050000D02*
X30900000Y15550000D01*
X32100000Y15550000D02*
X32100000Y15050000D01*
X32100000Y15050000D02*
X30900000Y15050000D01*
X34400000Y15550000D02*
X32100000Y15550000D01*
X34400000Y15050000D02*
X34400000Y15550000D01*
X35600000Y15550000D02*
X35600000Y15050000D01*
X35600000Y15050000D02*
X34400000Y15050000D01*
X37900000Y15550000D02*
X35600000Y15550000D01*
X37900000Y15050000D02*
X37900000Y15550000D01*
X39100000Y15550000D02*
X39100000Y15050000D01*
X39100000Y15050000D02*
X37900000Y15050000D01*
X41400000Y15550000D02*
X39100000Y15550000D01*
X41400000Y15050000D02*
X41400000Y15550000D01*
X42600000Y15550000D02*
X42600000Y15050000D01*
X42600000Y15050000D02*
X41400000Y15050000D01*
X44900000Y15550000D02*
X42600000Y15550000D01*
X44900000Y15050000D02*
X44900000Y15550000D01*
X45700000Y22950000D02*
X45700000Y22050000D01*
X45700000Y22050000D02*
X45900000Y22250000D01*
X45700000Y21250000D02*
X45700000Y18250000D01*
X45700000Y18250000D02*
X45900000Y18450000D01*
X45700000Y17450000D02*
X45700000Y15050000D01*
X45700000Y15050000D02*
X44900000Y15050000D01*
X45900000Y22250000D02*
X46200000Y22250000D01*
X45900000Y21050000D02*
X45700000Y21250000D01*
X45900000Y18450000D02*
X46200000Y18450000D01*
X45900000Y17250000D02*
X45700000Y17450000D01*
X46200000Y22250000D02*
X46200000Y21050000D01*
X46200000Y21050000D02*
X45900000Y21050000D01*
X46200000Y18450000D02*
X46200000Y17250000D01*
X46200000Y17250000D02*
X45900000Y17250000D01*
%TO.C,R6*%
X68222500Y18487258D02*
X68222500Y18012742D01*
X67177500Y18487258D02*
X67177500Y18012742D01*
%TO.C,R5*%
X65615000Y18012742D02*
X65615000Y18487258D01*
X66660000Y18012742D02*
X66660000Y18487258D01*
%TO.C,R4*%
X76877500Y18062742D02*
X76877500Y18537258D01*
X77922500Y18062742D02*
X77922500Y18537258D01*
%TO.C,R3*%
X74522500Y18537258D02*
X74522500Y18062742D01*
X73477500Y18537258D02*
X73477500Y18062742D01*
%TO.C,R2*%
X72722500Y18537258D02*
X72722500Y18062742D01*
X71677500Y18537258D02*
X71677500Y18062742D01*
%TO.C,R1*%
X71222500Y18537258D02*
X71222500Y18062742D01*
X70177500Y18537258D02*
X70177500Y18062742D01*
%TO.C,Q4*%
X67600000Y23010000D02*
X67360000Y23340000D01*
X67840000Y23340000D01*
X67600000Y23010000D01*
G36*
X67600000Y23010000D02*
G01*
X67360000Y23340000D01*
X67840000Y23340000D01*
X67600000Y23010000D01*
G37*
X68900000Y19940000D02*
X69700000Y19940000D01*
X68900000Y19940000D02*
X68100000Y19940000D01*
X68900000Y23060000D02*
X69700000Y23060000D01*
X68900000Y23060000D02*
X68100000Y23060000D01*
%TO.C,Q2*%
X85702500Y5960000D02*
X85222500Y5960000D01*
X85462500Y6290000D01*
X85702500Y5960000D01*
G36*
X85702500Y5960000D02*
G01*
X85222500Y5960000D01*
X85462500Y6290000D01*
X85702500Y5960000D01*
G37*
X84300000Y9360000D02*
X83650000Y9360000D01*
X84300000Y9360000D02*
X84950000Y9360000D01*
X84300000Y6240000D02*
X83650000Y6240000D01*
X84300000Y6240000D02*
X84950000Y6240000D01*
%TO.C,Q1*%
X71800000Y23010000D02*
X71560000Y23340000D01*
X72040000Y23340000D01*
X71800000Y23010000D01*
G36*
X71800000Y23010000D02*
G01*
X71560000Y23340000D01*
X72040000Y23340000D01*
X71800000Y23010000D01*
G37*
X73100000Y19940000D02*
X73900000Y19940000D01*
X73100000Y19940000D02*
X72300000Y19940000D01*
X73100000Y23060000D02*
X73900000Y23060000D01*
X73100000Y23060000D02*
X72300000Y23060000D01*
%TO.C,U1*%
X85775000Y19035000D02*
X83575000Y19035000D01*
X85775000Y19035000D02*
X87975000Y19035000D01*
X85775000Y10965000D02*
X83575000Y10965000D01*
X85775000Y10965000D02*
X87975000Y10965000D01*
X81915000Y18575000D02*
X81585000Y18335000D01*
X81585000Y18815000D01*
X81915000Y18575000D01*
G36*
X81915000Y18575000D02*
G01*
X81585000Y18335000D01*
X81585000Y18815000D01*
X81915000Y18575000D01*
G37*
%TO.C,C2*%
X87540580Y20510000D02*
X87259420Y20510000D01*
X87540580Y19490000D02*
X87259420Y19490000D01*
D15*
%TO.C,U2*%
X94603636Y5940000D02*
X94603636Y23085000D01*
X96508636Y4035000D02*
X110478636Y4035000D01*
D16*
X98998636Y24990000D02*
X99002364Y26000272D01*
X99502364Y26500000D02*
X107497636Y26500000D01*
X107997636Y26000000D02*
X107997636Y24990000D01*
D15*
X110478636Y24990000D02*
X96508636Y24990000D01*
X112383636Y5940000D02*
X112383636Y23085000D01*
X94603636Y23089000D02*
G75*
G02*
X96508636Y24994000I1905001J-1D01*
G01*
X96508636Y4035000D02*
G75*
G02*
X94603636Y5940000I1J1905001D01*
G01*
D16*
X99002364Y26000272D02*
G75*
G02*
X99502364Y26499999I500018J-291D01*
G01*
X107497636Y26500000D02*
G75*
G02*
X107997600Y26000000I-36J-500000D01*
G01*
D15*
X110478636Y24990000D02*
G75*
G02*
X112383640Y23085000I-6J-1905010D01*
G01*
X112383636Y5940000D02*
G75*
G02*
X110478636Y4034994I-1904996J-10D01*
G01*
D17*
X94645636Y24574000D02*
G75*
G02*
X94141636Y24574000I-252000J0D01*
G01*
X94141636Y24574000D02*
G75*
G02*
X94645636Y24574000I252000J0D01*
G01*
X95862636Y23851000D02*
G75*
G02*
X95358636Y23851000I-252000J0D01*
G01*
X95358636Y23851000D02*
G75*
G02*
X95862636Y23851000I252000J0D01*
G01*
D14*
%TO.C,C3*%
X84540580Y20510000D02*
X84259420Y20510000D01*
X84540580Y19490000D02*
X84259420Y19490000D01*
%TO.C,D1*%
X68600000Y17400000D02*
X68600000Y19360000D01*
X69800000Y19360000D02*
X68600000Y19360000D01*
X69800000Y17400000D02*
X69800000Y19360000D01*
%TO.C,U3*%
X59120000Y22270000D02*
X59120000Y17629000D01*
X55851000Y22270000D02*
X55851000Y20760000D01*
X52150000Y22270000D02*
X52150000Y20760000D01*
X48880000Y17629000D02*
X59120000Y17629000D01*
X48880000Y20760000D02*
X59120000Y20760000D01*
X48880000Y22270000D02*
X59120000Y22270000D01*
X48880000Y22270000D02*
X48880000Y17629000D01*
%TD*%
M02*
