%TF.GenerationSoftware,KiCad,Pcbnew,8.0.3*%
%TF.CreationDate,2025-03-09T15:38:32-04:00*%
%TF.ProjectId,200280rB,32303032-3830-4724-922e-6b696361645f,rev?*%
%TF.SameCoordinates,PX3473bc0PY5f5e100*%
%TF.FileFunction,Soldermask,Top*%
%TF.FilePolarity,Negative*%
%FSLAX46Y46*%
G04 Gerber Fmt 4.6, Leading zero omitted, Abs format (unit mm)*
G04 Created by KiCad (PCBNEW 8.0.3) date 2025-03-09 15:38:32*
%MOMM*%
%LPD*%
G01*
G04 APERTURE LIST*
G04 Aperture macros list*
%AMRoundRect*
0 Rectangle with rounded corners*
0 $1 Rounding radius*
0 $2 $3 $4 $5 $6 $7 $8 $9 X,Y pos of 4 corners*
0 Add a 4 corners polygon primitive as box body*
4,1,4,$2,$3,$4,$5,$6,$7,$8,$9,$2,$3,0*
0 Add four circle primitives for the rounded corners*
1,1,$1+$1,$2,$3*
1,1,$1+$1,$4,$5*
1,1,$1+$1,$6,$7*
1,1,$1+$1,$8,$9*
0 Add four rect primitives between the rounded corners*
20,1,$1+$1,$2,$3,$4,$5,0*
20,1,$1+$1,$4,$5,$6,$7,0*
20,1,$1+$1,$6,$7,$8,$9,0*
20,1,$1+$1,$8,$9,$2,$3,0*%
G04 Aperture macros list end*
%ADD10RoundRect,0.200000X-0.275000X0.200000X-0.275000X-0.200000X0.275000X-0.200000X0.275000X0.200000X0*%
%ADD11RoundRect,0.200000X0.275000X-0.200000X0.275000X0.200000X-0.275000X0.200000X-0.275000X-0.200000X0*%
%ADD12RoundRect,0.150000X-0.512500X-0.150000X0.512500X-0.150000X0.512500X0.150000X-0.512500X0.150000X0*%
%ADD13RoundRect,0.250000X-0.250000X0.250000X-0.250000X-0.250000X0.250000X-0.250000X0.250000X0.250000X0*%
%ADD14RoundRect,0.225000X-0.250000X0.225000X-0.250000X-0.225000X0.250000X-0.225000X0.250000X0.225000X0*%
%ADD15RoundRect,0.250000X-0.650000X-1.550000X0.650000X-1.550000X0.650000X1.550000X-0.650000X1.550000X0*%
%ADD16O,1.800000X3.600000*%
%ADD17RoundRect,0.100000X-0.637500X-0.100000X0.637500X-0.100000X0.637500X0.100000X-0.637500X0.100000X0*%
%ADD18RoundRect,0.200000X-0.053033X0.335876X-0.335876X0.053033X0.053033X-0.335876X0.335876X-0.053033X0*%
%ADD19RoundRect,0.225000X0.225000X0.250000X-0.225000X0.250000X-0.225000X-0.250000X0.225000X-0.250000X0*%
%ADD20C,6.400000*%
%ADD21RoundRect,0.525400X-0.900400X-0.525400X0.900400X-0.525400X0.900400X0.525400X-0.900400X0.525400X0*%
%ADD22RoundRect,0.300400X1.000400X0.300400X-1.000400X0.300400X-1.000400X-0.300400X1.000400X-0.300400X0*%
%ADD23C,1.700000*%
%ADD24RoundRect,0.150000X0.587500X0.150000X-0.587500X0.150000X-0.587500X-0.150000X0.587500X-0.150000X0*%
%ADD25R,1.905000X2.000000*%
%ADD26O,1.905000X2.000000*%
%ADD27RoundRect,0.250000X0.412500X0.650000X-0.412500X0.650000X-0.412500X-0.650000X0.412500X-0.650000X0*%
G04 APERTURE END LIST*
D10*
%TO.C,R6*%
X74500000Y17325000D03*
X74500000Y15675000D03*
%TD*%
D11*
%TO.C,R5*%
X73000000Y15675000D03*
X73000000Y17325000D03*
%TD*%
D10*
%TO.C,R3*%
X68000000Y17325000D03*
X68000000Y15675000D03*
%TD*%
D11*
%TO.C,R4*%
X69500000Y15675000D03*
X69500000Y17325000D03*
%TD*%
%TO.C,R2*%
X64000000Y15675000D03*
X64000000Y17325000D03*
%TD*%
D10*
%TO.C,R1*%
X62500000Y17325000D03*
X62500000Y15675000D03*
%TD*%
D12*
%TO.C,Q2*%
X71362500Y21500000D03*
X71362500Y19600000D03*
X73637500Y20550000D03*
%TD*%
%TO.C,Q1*%
X66362500Y21450000D03*
X66362500Y19550000D03*
X68637500Y20500000D03*
%TD*%
D13*
%TO.C,D1*%
X66000000Y17250000D03*
X66000000Y14750000D03*
%TD*%
D14*
%TO.C,C3*%
X71500000Y15725000D03*
X71500000Y17275000D03*
%TD*%
D15*
%TO.C,J1*%
X12250000Y19750000D03*
D16*
X15750000Y19750000D03*
X19250000Y19750000D03*
X22750000Y19750000D03*
X26250000Y19750000D03*
X29750000Y19750000D03*
X33250000Y19750000D03*
X36750000Y19750000D03*
X40250000Y19750000D03*
X43750000Y19750000D03*
%TD*%
D17*
%TO.C,U2*%
X82912500Y18575000D03*
X82912500Y17925000D03*
X82912500Y17275000D03*
X82912500Y16625000D03*
X82912500Y15975000D03*
X82912500Y15325000D03*
X82912500Y14675000D03*
X82912500Y14025000D03*
X82912500Y13375000D03*
X82912500Y12725000D03*
X82912500Y12075000D03*
X82912500Y11425000D03*
X88637500Y11425000D03*
X88637500Y12075000D03*
X88637500Y12725000D03*
X88637500Y13375000D03*
X88637500Y14025000D03*
X88637500Y14675000D03*
X88637500Y15325000D03*
X88637500Y15975000D03*
X88637500Y16625000D03*
X88637500Y17275000D03*
X88637500Y17925000D03*
X88637500Y18575000D03*
%TD*%
D18*
%TO.C,R8*%
X90583363Y4583363D03*
X89416637Y3416637D03*
%TD*%
D19*
%TO.C,C2*%
X88175000Y20000000D03*
X86625000Y20000000D03*
%TD*%
D20*
%TO.C,H1*%
X5000000Y12500000D03*
%TD*%
D21*
%TO.C,U3*%
X95438636Y22073000D03*
X95438636Y19533000D03*
X95438636Y16993000D03*
X95438636Y14453000D03*
X95438636Y11913000D03*
X95438636Y9373000D03*
X95438636Y6833000D03*
X111603636Y6833000D03*
X111603636Y9373000D03*
X111603636Y11913000D03*
X111603636Y14453000D03*
X111603636Y16993000D03*
X111603636Y19533000D03*
X111603636Y22073000D03*
D22*
X99048636Y14835000D03*
X99048636Y16740000D03*
D23*
X102223636Y23085000D03*
X104763636Y23085000D03*
X102223636Y20545000D03*
X104763636Y20545000D03*
X102223636Y18005000D03*
X104763636Y18005000D03*
X102223636Y15465000D03*
X104763636Y15465000D03*
%TD*%
D24*
%TO.C,Q4*%
X84937500Y1550000D03*
X84937500Y3450000D03*
X83062500Y2500000D03*
%TD*%
D19*
%TO.C,C1*%
X85175000Y20000000D03*
X83625000Y20000000D03*
%TD*%
D25*
%TO.C,U1*%
X51460000Y19000000D03*
D26*
X54000000Y19000000D03*
X56540000Y19000000D03*
%TD*%
D10*
%TO.C,R7*%
X87000000Y7325000D03*
X87000000Y5675000D03*
%TD*%
D27*
%TO.C,C4*%
X80562500Y6500000D03*
X77437500Y6500000D03*
%TD*%
D20*
%TO.C,H2*%
X120000000Y12500000D03*
%TD*%
D24*
%TO.C,Q3*%
X84937500Y5550000D03*
X84937500Y7450000D03*
X83062500Y6500000D03*
%TD*%
D18*
%TO.C,R10*%
X92183363Y2983363D03*
X91016637Y1816637D03*
%TD*%
D10*
%TO.C,R9*%
X87000000Y3325000D03*
X87000000Y1675000D03*
%TD*%
M02*
